# Blender v2.79 (sub 0) OBJ File: 'Door.blend'
# www.blender.org
mtllib Door.mtl
o Cube
v -0.762408 3.611017 -0.016497
v -0.762408 3.611017 -0.125681
v -1.000000 0.024443 -0.016497
v -1.000000 0.024443 -0.125682
v -0.762408 0.024443 -0.016497
v -0.762408 0.024443 -0.125682
v -1.000000 3.611017 -0.016497
v -1.000000 3.611017 -0.125681
v -0.762408 3.416439 -0.016497
v -1.000000 3.416439 -0.016497
v -1.000000 3.416439 -0.125681
v -0.762408 3.416439 -0.125681
v -0.762408 3.358634 -0.016497
v -1.000000 3.358634 -0.016497
v -1.000000 3.358634 -0.125681
v -0.762408 3.358634 -0.125681
v -0.826375 0.024443 -0.125682
v -0.826375 0.024443 -0.016497
v -0.826375 3.611017 -0.125681
v -0.826376 3.611017 -0.016497
v -0.826375 3.416439 -0.125681
v -0.826376 3.416439 -0.016497
v -0.826376 3.358634 -0.016497
v -0.826375 3.358634 -0.125681
v -0.762408 3.358634 -0.148487
v -0.762408 3.416439 -0.148487
v -0.762408 0.024443 -0.148487
v -0.826375 0.024443 -0.148487
v -0.826375 3.416439 -0.148487
v -0.826375 3.358634 -0.148487
v -0.762408 3.358634 0.006816
v -0.762408 0.024443 0.006816
v -0.762408 3.416439 0.006816
v -0.826375 0.024443 0.006816
v -0.826376 3.416439 0.006816
v -0.826376 3.358634 0.006816
v 0.762408 3.611017 -0.016497
v 0.762408 3.611017 -0.125681
v 1.000000 0.024443 -0.016497
v 1.000000 0.024443 -0.125682
v 0.762408 0.024443 -0.016497
v 0.762408 0.024443 -0.125682
v 1.000000 3.611017 -0.016497
v 1.000000 3.611017 -0.125681
v 0.000000 0.024443 -0.125682
v 0.000000 0.024443 -0.016497
v 0.000000 3.611017 -0.125681
v 0.000000 3.611017 -0.016496
v 0.762408 3.416439 -0.016497
v 1.000000 3.416439 -0.016497
v 1.000000 3.416439 -0.125681
v 0.762408 3.416439 -0.125681
v 0.000000 3.416439 -0.125681
v 0.000000 3.416439 -0.016496
v 0.762408 3.358634 -0.016497
v 0.000000 3.358634 -0.016496
v 1.000000 3.358634 -0.016497
v 1.000000 3.358634 -0.125681
v 0.762408 3.358634 -0.125681
v 0.000000 3.358634 -0.125681
v 0.826375 0.024443 -0.125682
v 0.826375 0.024443 -0.016497
v 0.826375 3.611017 -0.125681
v 0.826376 3.611017 -0.016497
v 0.826375 3.416439 -0.125681
v 0.826376 3.416439 -0.016497
v 0.826376 3.358634 -0.016497
v 0.826375 3.358634 -0.125681
v 0.762408 3.358634 -0.148487
v 0.762408 3.416439 -0.148487
v 0.000000 3.358634 -0.148487
v 0.000000 3.416439 -0.148487
v 0.762408 0.024443 -0.148487
v 0.826375 0.024443 -0.148487
v 0.826375 3.416439 -0.148487
v 0.826375 3.358634 -0.148487
v 0.762408 3.358634 0.006816
v 0.762408 0.024443 0.006816
v 0.000000 3.416439 0.006817
v 0.762408 3.416439 0.006816
v 0.000000 3.358634 0.006817
v 0.826375 0.024443 0.006816
v 0.826376 3.416439 0.006816
v 0.826376 3.358634 0.006816
v 0.829800 1.722467 0.015195
v 0.829800 1.749208 0.015195
v 0.829800 1.722467 -0.021250
v 0.829800 1.749208 -0.021250
v 0.981244 1.722467 0.015195
v 0.981244 1.749208 0.015195
v 0.981244 1.722467 -0.021250
v 0.981244 1.749208 -0.021250
v 0.946188 1.722467 -0.021250
v 0.946188 1.749208 -0.021250
v 0.946188 1.722467 0.015195
v 0.946188 1.749208 0.015195
v 0.981244 1.749208 0.128762
v 0.981244 1.722467 0.128762
v 0.946188 1.722467 0.128762
v 0.946188 1.749208 0.128762
v 0.946188 1.749208 0.097197
v 0.981244 1.749208 0.097197
v 0.981244 1.722467 0.097197
v 0.946188 1.722467 0.097197
v 0.623311 1.749208 0.128762
v 0.623311 1.722467 0.128762
v 0.623311 1.749208 0.097197
v 0.623311 1.722467 0.097197
v 0.829800 1.763980 0.015195
v 0.829800 1.763980 -0.021250
v 0.946188 1.763980 -0.021250
v 0.981244 1.763980 -0.021250
v 0.981244 1.763980 0.015195
v 0.946188 1.763980 0.015195
v 0.829800 1.705516 -0.021250
v 0.829800 1.705516 0.015195
v 0.946188 1.705516 -0.021250
v 0.981244 1.705516 0.015195
v 0.981244 1.705516 -0.021250
v 0.946188 1.705516 0.015195
v 0.828101 1.748482 -0.159279
v 0.828101 1.721741 -0.159279
v 0.828101 1.748482 -0.122834
v 0.828101 1.721741 -0.122834
v 0.979545 1.748482 -0.159279
v 0.979545 1.721741 -0.159279
v 0.979545 1.748482 -0.122834
v 0.979545 1.721741 -0.122834
v 0.944489 1.748482 -0.122834
v 0.944489 1.721741 -0.122834
v 0.944489 1.748482 -0.159279
v 0.944489 1.721741 -0.159279
v 0.979545 1.721741 -0.272846
v 0.979545 1.748482 -0.272846
v 0.944489 1.748482 -0.272846
v 0.944489 1.721741 -0.272846
v 0.944489 1.721741 -0.241281
v 0.979545 1.721741 -0.241281
v 0.979545 1.748482 -0.241281
v 0.944489 1.748482 -0.241281
v 0.621611 1.721741 -0.272846
v 0.621611 1.748482 -0.272846
v 0.621611 1.721741 -0.241281
v 0.621611 1.748482 -0.241281
v 0.828101 1.706969 -0.159279
v 0.828101 1.706969 -0.122834
v 0.944489 1.706969 -0.122834
v 0.979545 1.706969 -0.122834
v 0.979545 1.706969 -0.159279
v 0.944489 1.706969 -0.159279
v 0.828101 1.765433 -0.122834
v 0.828101 1.765433 -0.159279
v 0.944489 1.765433 -0.122834
v 0.979545 1.765433 -0.159279
v 0.979545 1.765433 -0.122834
v 0.944489 1.765433 -0.159279
vt 0.267678 0.507477
vt 0.272308 0.492019
vt 0.296388 0.505652
vt 0.284510 0.513640
vt 0.245345 0.939166
vt 0.254567 0.937412
vt 0.263831 0.948933
vt 0.244089 0.949863
vt 0.586490 0.450953
vt 0.586490 0.476805
vt 0.563422 0.476805
vt 0.563422 0.450953
vt 0.290319 0.916366
vt 0.273496 0.907935
vt 0.539627 0.443352
vt 0.539780 0.000367
vt 0.562848 0.000375
vt 0.562695 0.443360
vt 0.159102 0.497559
vt 0.159046 0.482920
vt 0.262835 0.490679
vt 0.259470 0.505883
vt 0.190968 0.947064
vt 0.238914 0.939878
vt 0.239144 0.948401
vt 0.193312 0.950928
vt 0.696283 0.450953
vt 0.696283 0.476805
vt 0.594989 0.476805
vt 0.594989 0.450953
vt 0.884880 0.920362
vt 0.884879 0.477379
vt 0.986174 0.477379
vt 0.986174 0.920362
vt 0.429823 0.476847
vt 0.429831 0.450995
vt 0.531126 0.451029
vt 0.531117 0.476881
vt 0.526962 0.477466
vt 0.526962 0.757853
vt 0.522068 0.757889
vt 0.522068 0.477502
vt 0.539615 0.476884
vt 0.539624 0.451032
vt 0.562692 0.451040
vt 0.562683 0.476892
vt 0.296388 0.904594
vt 0.280187 0.898935
vt 0.586490 0.443273
vt 0.563422 0.443273
vt 0.586490 0.000291
vt 0.563423 0.000291
vt 0.398256 0.477466
vt 0.398256 0.920449
vt 0.296962 0.920449
vt 0.296962 0.477466
vt 0.296962 0.924695
vt 0.305460 0.924695
vt 0.305460 0.927725
vt 0.296962 0.927725
vt 0.406753 0.924695
vt 0.406753 0.927725
vt 0.783585 0.920936
vt 0.884881 0.920936
vt 0.884881 0.924034
vt 0.783585 0.924034
vt 0.505740 0.766361
vt 0.505656 0.754380
vt 0.510488 0.754346
vt 0.510572 0.766328
vt 0.521407 0.751191
vt 0.521492 0.763300
vt 0.516715 0.763333
vt 0.516629 0.751225
vt 0.673217 0.928050
vt 0.673217 0.920370
vt 0.774512 0.920370
vt 0.774512 0.928050
vt 0.783011 0.920370
vt 0.783011 0.928050
vt 0.774513 0.477406
vt 0.783011 0.477406
vt 0.538417 0.754822
vt 0.538417 0.477502
vt 0.543257 0.477466
vt 0.543257 0.754786
vt 0.266899 0.510360
vt 0.258979 0.508906
vt 0.398260 0.931329
vt 0.296962 0.931329
vt 0.296962 0.928299
vt 0.398260 0.928299
vt 0.521494 0.477466
vt 0.516717 0.477500
vt 0.158650 0.008691
vt 0.158634 0.000287
vt 0.269523 0.000550
vt 0.269473 0.008925
vt 0.263252 0.487400
vt 0.278702 0.009005
vt 0.272717 0.488435
vt 0.278781 0.000638
vt 0.505740 0.477500
vt 0.510572 0.477466
vt 0.406755 0.924121
vt 0.305461 0.924121
vt 0.305461 0.921024
vt 0.406755 0.921024
vt 0.296962 0.924121
vt 0.296962 0.921024
vt 0.052942 0.506940
vt 0.038000 0.518177
vt 0.025449 0.510906
vt 0.046584 0.492574
vt 0.144383 0.938034
vt 0.147949 0.999713
vt 0.034025 0.958821
vt 0.045251 0.937787
vt 0.806076 0.450953
vt 0.829143 0.450953
vt 0.829143 0.476805
vt 0.806076 0.476805
vt 0.006089 0.920757
vt 0.024676 0.911832
vt 0.320041 0.443277
vt 0.296973 0.443269
vt 0.297126 0.000287
vt 0.320194 0.000295
vt 0.060432 0.504879
vt 0.056370 0.490342
vt 0.184492 0.975373
vt 0.186931 0.947007
vt 0.797577 0.450953
vt 0.797577 0.476805
vt 0.783585 0.920362
vt 0.783585 0.477379
vt 0.328528 0.476812
vt 0.328537 0.450960
vt 0.527536 0.477466
vt 0.532429 0.477517
vt 0.532429 0.757920
vt 0.527536 0.757869
vt 0.320030 0.476809
vt 0.296962 0.476801
vt 0.296971 0.450949
vt 0.320039 0.450957
vt 0.000287 0.907988
vt 0.016955 0.902662
vt 0.806076 0.443273
vt 0.829143 0.443273
vt 0.806075 0.000287
vt 0.829143 0.000287
vt 0.499550 0.477466
vt 0.499550 0.920449
vt 0.516550 0.924695
vt 0.516550 0.927725
vt 0.508051 0.927725
vt 0.508051 0.924695
vt 0.884881 0.924608
vt 0.884881 0.927705
vt 0.783585 0.927705
vt 0.783585 0.924608
vt 0.504956 0.766393
vt 0.500124 0.766342
vt 0.500250 0.754361
vt 0.505082 0.754412
vt 0.511275 0.751206
vt 0.516052 0.751257
vt 0.515923 0.763365
vt 0.511146 0.763314
vt 0.571921 0.928050
vt 0.571921 0.920370
vt 0.563422 0.928050
vt 0.563422 0.920370
vt 0.563422 0.477379
vt 0.571921 0.477379
vt 0.537843 0.754853
vt 0.533003 0.754802
vt 0.533003 0.477466
vt 0.537843 0.477518
vt 0.061061 0.507555
vt 0.053673 0.508733
vt 0.499553 0.928300
vt 0.499553 0.931329
vt 0.511278 0.477466
vt 0.516055 0.477517
vt 0.047877 0.009353
vt 0.047796 0.000982
vt 0.055869 0.487200
vt 0.046188 0.488554
vt 0.038653 0.009464
vt 0.038544 0.001103
vt 0.500249 0.477466
vt 0.505081 0.477517
vt 0.508049 0.921024
vt 0.508049 0.924121
vt 0.516547 0.921024
vt 0.516547 0.924121
vt 0.548673 0.487972
vt 0.548673 0.491525
vt 0.543831 0.491525
vt 0.543831 0.487972
vt 0.553881 0.760912
vt 0.553881 0.757359
vt 0.558538 0.757359
vt 0.558538 0.760912
vt 0.548673 0.496314
vt 0.548673 0.499867
vt 0.543831 0.499867
vt 0.543831 0.496314
vt 0.883510 0.014144
vt 0.883510 0.010591
vt 0.898973 0.010591
vt 0.898973 0.014144
vt 0.543831 0.485720
vt 0.548673 0.485720
vt 0.878852 0.010591
vt 0.878852 0.008629
vt 0.883510 0.008629
vt 0.548673 0.501829
vt 0.543831 0.501829
vt 0.538417 0.760912
vt 0.553881 0.763164
vt 0.538417 0.763164
vt 0.558702 0.799458
vt 0.554044 0.799458
vt 0.554044 0.795265
vt 0.558702 0.795265
vt 0.538417 0.757359
vt 0.558702 0.826590
vt 0.558702 0.830143
vt 0.554044 0.830143
vt 0.554044 0.826590
vt 0.548025 0.477466
vt 0.548025 0.481019
vt 0.543831 0.481019
vt 0.543831 0.477466
vt 0.511146 0.799458
vt 0.511146 0.795265
vt 0.554044 0.821822
vt 0.558702 0.821822
vt 0.558702 0.826016
vt 0.554044 0.826016
vt 0.554044 0.810927
vt 0.558702 0.810927
vt 0.872615 0.014144
vt 0.872615 0.010591
vt 0.558920 0.477466
vt 0.558920 0.481019
vt 0.558702 0.810353
vt 0.554044 0.810353
vt 0.548025 0.519087
vt 0.548025 0.522640
vt 0.543831 0.522640
vt 0.543831 0.519087
vt 0.829717 0.014144
vt 0.829717 0.010591
vt 0.511146 0.826016
vt 0.511146 0.821822
vt 0.511146 0.830143
vt 0.511146 0.826590
vt 0.547305 0.845114
vt 0.531841 0.845109
vt 0.531843 0.840267
vt 0.547306 0.840272
vt 0.551962 0.845116
vt 0.551964 0.840274
vt 0.538417 0.755396
vt 0.553881 0.755396
vt 0.548673 0.493488
vt 0.543831 0.493488
vt 0.898973 0.008629
vt 0.558538 0.755396
vt 0.547306 0.834849
vt 0.551964 0.834851
vt 0.551962 0.839693
vt 0.547305 0.839691
vt 0.531843 0.834844
vt 0.531841 0.839686
vt 0.543831 0.494062
vt 0.548673 0.494062
vt 0.898973 0.016396
vt 0.883510 0.016396
vt 0.558538 0.763164
vt 0.878852 0.014144
vt 0.878852 0.016396
vt 0.543831 0.507919
vt 0.543831 0.504366
vt 0.548673 0.504366
vt 0.548673 0.507919
vt 0.526610 0.840359
vt 0.526610 0.836806
vt 0.531267 0.836806
vt 0.531267 0.840359
vt 0.543831 0.516260
vt 0.543831 0.512708
vt 0.548673 0.512708
vt 0.548673 0.516260
vt 0.883510 0.005802
vt 0.883510 0.002250
vt 0.898973 0.002250
vt 0.898973 0.005802
vt 0.548673 0.510171
vt 0.543831 0.510171
vt 0.878852 0.002250
vt 0.878852 0.000287
vt 0.883510 0.000287
vt 0.543831 0.510745
vt 0.548673 0.510745
vt 0.511146 0.840359
vt 0.526610 0.842611
vt 0.511146 0.842611
vt 0.558702 0.768133
vt 0.554044 0.768133
vt 0.554044 0.763939
vt 0.558702 0.763939
vt 0.511146 0.836806
vt 0.558702 0.830717
vt 0.558702 0.834270
vt 0.554044 0.834270
vt 0.554044 0.830717
vt 0.554726 0.485146
vt 0.554726 0.481593
vt 0.558920 0.481593
vt 0.558920 0.485146
vt 0.511146 0.768133
vt 0.511146 0.763939
vt 0.554044 0.790497
vt 0.558702 0.790497
vt 0.558702 0.794691
vt 0.554044 0.794691
vt 0.554044 0.779602
vt 0.558702 0.779602
vt 0.872615 0.005803
vt 0.872615 0.002250
vt 0.543831 0.485146
vt 0.543831 0.481593
vt 0.558702 0.779028
vt 0.554044 0.779028
vt 0.543831 0.526766
vt 0.543831 0.523214
vt 0.548025 0.523214
vt 0.548025 0.526766
vt 0.829717 0.005803
vt 0.829717 0.002250
vt 0.511146 0.794691
vt 0.511146 0.790497
vt 0.511146 0.834270
vt 0.511146 0.830717
vt 0.845181 0.021812
vt 0.829717 0.021812
vt 0.829717 0.016970
vt 0.845181 0.016970
vt 0.849838 0.021812
vt 0.849838 0.016970
vt 0.511146 0.834844
vt 0.526610 0.834844
vt 0.543831 0.502403
vt 0.548673 0.502403
vt 0.898973 0.000287
vt 0.531267 0.834844
vt 0.526610 0.843186
vt 0.531267 0.843186
vt 0.531267 0.848028
vt 0.526610 0.848028
vt 0.511146 0.843186
vt 0.511146 0.848028
vt 0.548673 0.518513
vt 0.543831 0.518513
vt 0.898973 0.008055
vt 0.883510 0.008055
vt 0.531267 0.842611
vt 0.878852 0.005802
vt 0.878852 0.008055
vn 0.0000 -1.0000 -0.0000
vn 0.0000 1.0000 0.0000
vn -0.0000 0.0000 1.0000
vn -1.0000 0.0000 -0.0000
vn 0.0000 0.0000 -1.0000
vn 1.0000 0.0000 0.0000
usemtl Material
s off
f 17/1/1 18/2/1 3/3/1 4/4/1
f 19/5/2 8/6/2 7/7/2 20/8/2
f 22/9/3 20/10/3 7/11/3 10/12/3
f 10/13/4 7/7/4 8/6/4 11/14/4
f 24/15/5 17/16/5 4/17/5 15/18/5
f 45/19/1 46/20/1 5/21/1 6/22/1
f 47/23/2 2/24/2 1/25/2 48/26/2
f 54/27/3 48/28/3 1/29/3 9/30/3
f 60/31/5 45/32/5 6/33/5 16/34/5
f 47/35/5 53/36/5 12/37/5 2/38/5
f 5/39/6 13/40/6 31/41/6 32/42/6
f 19/43/5 21/44/5 11/45/5 8/46/5
f 14/47/4 10/13/4 11/14/4 15/48/4
f 23/49/3 22/9/3 10/12/3 14/50/3
f 18/51/3 23/49/3 14/50/3 3/52/3
f 3/3/4 14/47/4 15/48/4 4/4/4
f 46/53/3 56/54/3 13/55/3 5/56/3
f 21/57/2 12/58/2 26/59/2 29/60/2
f 21/44/5 24/15/5 15/18/5 11/45/5
f 12/58/2 53/61/2 72/62/2 26/59/2
f 13/63/1 56/64/1 81/65/1 31/66/1
f 22/67/4 23/68/4 36/69/4 35/70/4
f 2/38/5 12/37/5 21/44/5 19/43/5
f 24/71/4 21/72/4 29/73/4 30/74/4
f 9/30/3 1/29/3 20/10/3 22/9/3
f 2/24/2 19/5/2 20/8/2 1/25/2
f 6/22/1 5/21/1 18/2/1 17/1/1
f 72/75/5 71/76/5 25/77/5 26/78/5
f 26/78/5 25/77/5 30/79/5 29/80/5
f 25/77/5 27/81/5 28/82/5 30/79/5
f 16/83/6 6/84/6 27/85/6 25/86/6
f 6/22/1 17/1/1 28/87/1 27/88/1
f 60/89/1 16/90/1 25/91/1 71/92/1
f 17/93/4 24/71/4 30/74/4 28/94/4
f 81/95/3 79/96/3 33/97/3 31/98/3
f 32/99/3 31/98/3 36/100/3 34/101/3
f 31/98/3 33/97/3 35/102/3 36/100/3
f 23/68/4 18/103/4 34/104/4 36/69/4
f 54/105/2 9/106/2 33/107/2 79/108/2
f 9/106/2 22/109/2 35/110/2 33/107/2
f 18/2/1 5/21/1 32/99/1 34/101/1
f 61/111/1 40/112/1 39/113/1 62/114/1
f 63/115/2 64/116/2 43/117/2 44/118/2
f 66/119/3 50/120/3 43/121/3 64/122/3
f 50/123/6 51/124/6 44/118/6 43/117/6
f 68/125/5 58/126/5 40/127/5 61/128/5
f 45/19/1 42/129/1 41/130/1 46/20/1
f 47/23/2 48/26/2 37/131/2 38/132/2
f 54/27/3 49/133/3 37/134/3 48/28/3
f 60/31/5 59/135/5 42/136/5 45/32/5
f 47/35/5 38/137/5 52/138/5 53/36/5
f 41/139/4 78/140/4 77/141/4 55/142/4
f 63/143/5 44/144/5 51/145/5 65/146/5
f 57/147/6 58/148/6 51/124/6 50/123/6
f 67/149/3 57/150/3 50/120/3 66/119/3
f 62/151/3 39/152/3 57/150/3 67/149/3
f 39/113/6 40/112/6 58/148/6 57/147/6
f 46/53/3 41/153/3 55/154/3 56/54/3
f 65/155/2 75/156/2 70/157/2 52/158/2
f 65/146/5 51/145/5 58/126/5 68/125/5
f 52/158/2 70/157/2 72/62/2 53/61/2
f 55/159/1 77/160/1 81/161/1 56/162/1
f 66/163/6 83/164/6 84/165/6 67/166/6
f 38/137/5 63/143/5 65/146/5 52/138/5
f 68/167/6 76/168/6 75/169/6 65/170/6
f 49/133/3 66/119/3 64/122/3 37/134/3
f 38/132/2 37/131/2 64/116/2 63/115/2
f 42/129/1 61/111/1 62/114/1 41/130/1
f 72/75/5 70/171/5 69/172/5 71/76/5
f 70/171/5 75/173/5 76/174/5 69/172/5
f 69/172/5 76/174/5 74/175/5 73/176/5
f 59/177/4 69/178/4 73/179/4 42/180/4
f 42/129/1 73/181/1 74/182/1 61/111/1
f 60/89/1 71/92/1 69/183/1 59/184/1
f 61/185/6 74/186/6 76/168/6 68/167/6
f 81/95/3 77/187/3 80/188/3 79/96/3
f 78/189/3 82/190/3 84/191/3 77/187/3
f 77/187/3 84/191/3 83/192/3 80/188/3
f 67/166/6 84/165/6 82/193/6 62/194/6
f 54/105/2 79/108/2 80/195/2 49/196/2
f 49/196/2 80/195/2 83/197/2 66/198/2
f 62/114/1 82/190/1 78/189/1 41/130/1
f 85/199/4 86/200/4 88/201/4 87/202/4
f 93/203/5 94/204/5 92/205/5 91/206/5
f 91/207/6 92/208/6 90/209/6 89/210/6
f 95/211/3 96/212/3 86/213/3 85/214/3
f 85/199/4 87/202/4 115/215/4 116/216/4
f 96/212/3 90/217/3 113/218/3 114/219/3
f 90/209/6 92/208/6 112/220/6 113/221/6
f 87/222/5 93/203/5 117/223/5 115/224/5
f 102/225/2 101/226/2 100/227/2 97/228/2
f 87/222/5 88/229/5 94/204/5 93/203/5
f 98/230/3 97/231/3 100/232/3 99/233/3
f 103/234/6 102/235/6 97/236/6 98/237/6
f 100/227/2 101/226/2 107/238/2 105/239/2
f 104/240/1 103/241/1 98/242/1 99/243/1
f 95/244/1 89/245/1 103/241/1 104/240/1
f 96/212/4 95/211/4 104/246/4 101/247/4
f 89/248/6 90/249/6 102/235/6 103/234/6
f 90/250/2 96/251/2 101/226/2 102/225/2
f 107/252/4 108/253/4 106/254/4 105/255/4
f 101/247/5 104/246/5 108/256/5 107/257/5
f 104/240/1 99/243/1 106/258/1 108/259/1
f 99/233/3 100/232/3 105/260/3 106/261/3
f 111/262/2 110/263/2 109/264/2 114/265/2
f 112/266/2 111/262/2 114/265/2 113/267/2
f 94/204/5 88/229/5 110/268/5 111/269/5
f 88/201/4 86/200/4 109/270/4 110/271/4
f 86/213/3 96/212/3 114/219/3 109/272/3
f 92/205/5 94/204/5 111/269/5 112/273/5
f 117/274/1 119/275/1 118/276/1 120/277/1
f 115/278/1 117/274/1 120/277/1 116/279/1
f 91/207/6 89/210/6 118/280/6 119/281/6
f 95/211/3 85/214/3 116/282/3 120/283/3
f 93/203/5 91/206/5 119/284/5 117/223/5
f 89/285/3 95/211/3 120/283/3 118/286/3
f 121/287/4 122/288/4 124/289/4 123/290/4
f 129/291/3 130/292/3 128/293/3 127/294/3
f 127/295/6 128/296/6 126/297/6 125/298/6
f 131/299/5 132/300/5 122/301/5 121/302/5
f 121/287/4 123/290/4 151/303/4 152/304/4
f 132/300/5 126/305/5 149/306/5 150/307/5
f 126/297/6 128/296/6 148/308/6 149/309/6
f 123/310/3 129/291/3 153/311/3 151/312/3
f 138/313/1 137/314/1 136/315/1 133/316/1
f 123/310/3 124/317/3 130/292/3 129/291/3
f 134/318/5 133/319/5 136/320/5 135/321/5
f 139/322/6 138/323/6 133/324/6 134/325/6
f 136/315/1 137/314/1 143/326/1 141/327/1
f 140/328/2 139/329/2 134/330/2 135/331/2
f 131/332/2 125/333/2 139/329/2 140/328/2
f 132/300/4 131/299/4 140/334/4 137/335/4
f 125/336/6 126/337/6 138/323/6 139/322/6
f 126/338/1 132/339/1 137/314/1 138/313/1
f 143/340/4 144/341/4 142/342/4 141/343/4
f 137/335/3 140/334/3 144/344/3 143/345/3
f 140/328/2 135/331/2 142/346/2 144/347/2
f 135/321/5 136/320/5 141/348/5 142/349/5
f 147/350/1 146/351/1 145/352/1 150/353/1
f 148/354/1 147/350/1 150/353/1 149/355/1
f 130/292/3 124/317/3 146/356/3 147/357/3
f 124/289/4 122/288/4 145/358/4 146/359/4
f 122/301/5 132/300/5 150/307/5 145/360/5
f 128/293/3 130/292/3 147/357/3 148/361/3
f 153/362/2 155/363/2 154/364/2 156/365/2
f 151/366/2 153/362/2 156/365/2 152/367/2
f 127/295/6 125/298/6 154/368/6 155/369/6
f 131/299/5 121/302/5 152/370/5 156/371/5
f 129/291/3 127/294/3 155/372/3 153/311/3
f 125/373/5 131/299/5 156/371/5 154/374/5
