# Blender v2.79 (sub 0) OBJ File: 'MeetingTable.blend'
# www.blender.org
mtllib MeetingTable.mtl
o Cube
v 1.000000 0.828045 -3.415012
v 1.000000 0.875550 -3.415012
v 0.633664 0.913812 -3.415012
v 1.000000 0.828045 -2.738707
v 1.000000 0.875550 -2.738706
v 0.633663 0.828045 -3.415012
v 0.633664 0.875550 -3.415012
v 0.633664 0.875550 -2.738707
v 0.633663 0.828045 -2.738707
v 0.633663 -0.160713 -2.738707
v 1.000000 0.913812 -2.738706
v 1.000000 0.913812 -3.415012
v 0.633664 0.913812 -2.738707
v 1.000000 0.828045 -1.672419
v 1.000000 0.875550 -1.672419
v 0.633663 0.875550 -1.672419
v 0.633663 0.828045 -1.672419
v 0.633663 -0.160713 -1.672419
v 1.000000 0.913812 -1.672419
v 0.633663 0.913812 -1.672419
v 1.000000 0.828045 -0.630766
v 1.000000 0.875550 -0.630766
v 0.633663 0.875550 -0.630766
v 1.000000 0.913812 -0.630766
v 0.633663 0.913812 -0.630766
v 0.633663 0.828045 -0.630766
v 0.633663 -0.160713 -0.630766
v -1.000000 0.828045 -3.415012
v -1.000000 0.875550 -3.415012
v 0.000000 0.828045 -3.415012
v 0.000000 0.875550 -3.415012
v -0.633664 0.913812 -3.415012
v 0.000000 0.828045 -2.738707
v -1.000000 0.828045 -2.738707
v -1.000000 0.875550 -2.738706
v 0.000000 0.875550 -2.738707
v -0.633663 0.828045 -3.415012
v -0.633664 0.875550 -3.415012
v -0.633664 0.875550 -2.738707
v -0.633663 0.828045 -2.738707
v 0.000000 -0.160713 -2.738707
v -0.633663 -0.160713 -2.738707
v 0.000000 0.913812 -3.415012
v -1.000000 0.913812 -2.738706
v -1.000000 0.913812 -3.415012
v 0.000000 0.913812 -2.738707
v -0.633664 0.913812 -2.738707
v -1.000000 0.828045 -1.672419
v -1.000000 0.875550 -1.672419
v 0.000000 0.875550 -1.672419
v -0.633663 0.875550 -1.672419
v -0.633663 0.828045 -1.672419
v 0.000000 -0.160713 -1.672419
v -0.633663 -0.160713 -1.672419
v -1.000000 0.913812 -1.672419
v -0.633663 0.913812 -1.672419
v -1.000000 0.828045 -0.630766
v -1.000000 0.875550 -0.630766
v 0.000000 0.875550 -0.630766
v -0.633663 0.875550 -0.630766
v -1.000000 0.913812 -0.630766
v -0.633663 0.913812 -0.630766
v -0.633663 0.828045 -0.630766
v 0.000000 -0.160713 -0.630766
v -0.633663 -0.160713 -0.630766
v 1.000000 0.828045 3.415012
v 1.000000 0.875550 3.415012
v 0.633664 0.913812 3.415012
v 1.000000 0.828045 2.738707
v 1.000000 0.875550 2.738706
v 0.633663 0.828045 3.415012
v 0.633664 0.875550 3.415012
v 0.633664 0.875550 2.738707
v 0.633663 0.828045 2.738707
v 0.633663 -0.160713 2.738707
v 1.000000 0.913812 2.738706
v 1.000000 0.913812 3.415012
v 0.633664 0.913812 2.738707
v 1.000000 0.828045 1.672419
v 1.000000 0.875550 1.672419
v 0.633663 0.875550 1.672419
v 0.633663 0.828045 1.672419
v 0.633663 -0.160713 1.672419
v 1.000000 0.913812 1.672419
v 0.633663 0.913812 1.672419
v 1.000000 0.828045 0.630766
v 1.000000 0.875550 0.630766
v 0.633663 0.875550 0.630766
v 1.000000 0.913812 0.630766
v 0.633663 0.913812 0.630766
v 0.633663 0.828045 0.630766
v 0.633663 -0.160713 0.630766
v -1.000000 0.828045 3.415012
v -1.000000 0.875550 3.415012
v 0.000000 0.828045 3.415012
v 0.000000 0.875550 3.415012
v -0.633664 0.913812 3.415012
v 0.000000 0.828045 2.738707
v -1.000000 0.828045 2.738707
v -1.000000 0.875550 2.738706
v 0.000000 0.875550 2.738707
v -0.633663 0.828045 3.415012
v -0.633664 0.875550 3.415012
v -0.633664 0.875550 2.738707
v -0.633663 0.828045 2.738707
v 0.000000 -0.160713 2.738707
v -0.633663 -0.160713 2.738707
v 0.000000 0.913812 3.415012
v -1.000000 0.913812 2.738706
v -1.000000 0.913812 3.415012
v 0.000000 0.913812 2.738707
v -0.633664 0.913812 2.738707
v -1.000000 0.828045 1.672419
v -1.000000 0.875550 1.672419
v 0.000000 0.875550 1.672419
v -0.633663 0.875550 1.672419
v -0.633663 0.828045 1.672419
v 0.000000 -0.160713 1.672419
v -0.633663 -0.160713 1.672419
v -1.000000 0.913812 1.672419
v -0.633663 0.913812 1.672419
v -1.000000 0.828045 0.630766
v -1.000000 0.875550 0.630766
v 0.000000 0.875550 0.630766
v -0.633663 0.875550 0.630766
v -1.000000 0.913812 0.630766
v -0.633663 0.913812 0.630766
v -0.633663 0.828045 0.630766
v 0.000000 -0.160713 0.630766
v -0.633663 -0.160713 0.630766
v 1.000000 0.828045 0.000000
v 1.000000 0.875550 0.000000
v 0.633663 0.828045 0.000000
v 0.633663 0.875550 0.000000
v 0.633663 -0.160713 0.000000
v 1.000000 0.913812 0.000000
v 0.633663 0.913812 0.000000
v -1.000000 0.828045 0.000000
v -1.000000 0.875550 0.000000
v 0.000000 0.875550 0.000000
v -0.633663 0.828045 0.000000
v -0.633663 0.875550 0.000000
v -0.633663 -0.160713 0.000000
v 0.000000 -0.160713 0.000000
v -1.000000 0.913812 0.000000
v -0.633663 0.913812 0.000000
vt 0.907168 0.983610
vt 0.907168 0.992136
vt 0.793433 0.992136
vt 0.793433 0.983610
vt 0.919210 0.177801
vt 0.805995 0.177801
vt 0.805995 0.000332
vt 0.919210 0.000332
vt 0.113546 0.719608
vt 0.113546 0.833343
vt 0.000332 0.833343
vt 0.000332 0.719608
vt 0.113547 0.947741
vt 0.113547 0.956268
vt 0.000332 0.956268
vt 0.000332 0.947741
vt 0.613281 0.947741
vt 0.613281 0.956268
vt 0.491892 0.956267
vt 0.491892 0.947741
vt 0.727680 0.992800
vt 0.841416 0.992800
vt 0.841416 0.999668
vt 0.727680 0.999668
vt 0.613282 0.653191
vt 0.491894 0.653191
vt 0.491894 0.539457
vt 0.613282 0.539457
vt 0.613282 0.718944
vt 0.491894 0.718944
vt 0.613281 0.963135
vt 0.491892 0.963135
vt 0.793433 0.976742
vt 0.907168 0.976742
vt 0.113546 0.718944
vt 0.000332 0.718944
vt 0.000332 0.653191
vt 0.113546 0.653191
vt 0.972920 0.983610
vt 0.972920 0.992136
vt 0.841415 0.862864
vt 0.841415 0.976078
vt 0.727681 0.976078
vt 0.727681 0.862864
vt 0.613946 0.342199
vt 0.613946 0.228465
vt 0.791416 0.228465
vt 0.791416 0.342199
vt 0.613282 0.066085
vt 0.613282 0.179819
vt 0.491894 0.179819
vt 0.491894 0.066085
vt 0.613282 0.000332
vt 0.491894 0.000332
vt 0.113547 0.000332
vt 0.113547 0.066085
vt 0.000333 0.066085
vt 0.000333 0.000332
vt 0.972920 0.976742
vt 0.300508 0.956268
vt 0.300508 0.963135
vt 0.113545 0.986726
vt 0.000332 0.986726
vt 0.000332 0.979859
vt 0.113545 0.979858
vt 0.491894 0.986725
vt 0.300509 0.986726
vt 0.300509 0.979858
vt 0.491894 0.979858
vt 0.113547 0.963135
vt 0.300510 0.066085
vt 0.300510 0.000332
vt 0.805331 0.227801
vt 0.613947 0.227801
vt 0.613946 0.114066
vt 0.805331 0.114066
vt 0.300509 0.718944
vt 0.300509 0.653191
vt 0.300508 0.947741
vt 0.491894 0.719608
vt 0.491894 0.833343
vt 0.300509 0.833343
vt 0.300509 0.719608
vt 0.983465 0.405934
vt 0.792080 0.405934
vt 0.792080 0.228465
vt 0.983465 0.228465
vt 0.000332 0.963135
vt 0.679699 0.983610
vt 0.679699 0.992136
vt 0.492558 0.897078
vt 0.492558 0.719608
vt 0.605772 0.719608
vt 0.605772 0.897078
vt 0.113546 0.947077
vt 0.000332 0.947077
vt 0.113545 0.979193
vt 0.000332 0.979193
vt 0.000332 0.970667
vt 0.113545 0.970667
vt 0.613281 0.979193
vt 0.491893 0.979194
vt 0.491893 0.970667
vt 0.613281 0.970667
vt 0.613946 0.999668
vt 0.613946 0.992800
vt 0.613282 0.425723
vt 0.491894 0.425723
vt 0.613282 0.359970
vt 0.491894 0.359970
vt 0.491893 0.963800
vt 0.613281 0.963800
vt 0.679699 0.976742
vt 0.113546 0.359970
vt 0.113546 0.425723
vt 0.000332 0.425723
vt 0.000332 0.359970
vt 0.613946 0.983610
vt 0.613946 0.992136
vt 0.613946 0.862864
vt 0.613946 0.976078
vt 0.791416 0.455933
vt 0.613946 0.455933
vt 0.613282 0.293553
vt 0.491894 0.293553
vt 0.613282 0.359306
vt 0.491894 0.359306
vt 0.113546 0.359306
vt 0.000332 0.359306
vt 0.000332 0.293553
vt 0.113546 0.293553
vt 0.613946 0.976742
vt 0.300508 0.970667
vt 0.300508 0.963799
vt 0.113546 0.987391
vt 0.113546 0.994258
vt 0.000332 0.994258
vt 0.000332 0.987391
vt 0.491894 0.987391
vt 0.491894 0.994258
vt 0.300508 0.994258
vt 0.300508 0.987391
vt 0.113545 0.963800
vt 0.300510 0.359306
vt 0.300510 0.293553
vt 0.805331 0.000332
vt 0.613946 0.000332
vt 0.300509 0.425723
vt 0.300509 0.359970
vt 0.300508 0.979194
vt 0.491894 0.947077
vt 0.300509 0.947077
vt 0.983465 0.406598
vt 0.983465 0.584067
vt 0.792080 0.584067
vt 0.792080 0.406598
vt 0.000332 0.963800
vt 0.791416 0.570332
vt 0.791416 0.684066
vt 0.613946 0.684066
vt 0.613946 0.456598
vt 0.791416 0.456598
vt 0.727681 0.684730
vt 0.841415 0.684730
vt 0.841415 0.862199
vt 0.613946 0.862199
vt 0.613946 0.684730
vt 0.907168 0.983610
vt 0.793433 0.983610
vt 0.793433 0.992136
vt 0.907168 0.992136
vt 0.919210 0.177801
vt 0.919210 0.000332
vt 0.113546 0.719608
vt 0.113546 0.833343
vt 0.113547 0.947741
vt 0.113547 0.956268
vt 0.613281 0.947741
vt 0.491892 0.947741
vt 0.491892 0.956267
vt 0.613281 0.956268
vt 0.727680 0.992800
vt 0.727680 0.999668
vt 0.841416 0.999668
vt 0.841416 0.992800
vt 0.613282 0.653191
vt 0.613282 0.539457
vt 0.491894 0.539457
vt 0.491894 0.653191
vt 0.613282 0.718944
vt 0.491894 0.718944
vt 0.491892 0.963135
vt 0.613281 0.963135
vt 0.907168 0.976742
vt 0.793433 0.976742
vt 0.113546 0.718944
vt 0.113546 0.653191
vt 0.972920 0.983610
vt 0.972920 0.992136
vt 0.841415 0.862864
vt 0.727681 0.862864
vt 0.613946 0.342199
vt 0.791416 0.342199
vt 0.791416 0.228465
vt 0.613946 0.228465
vt 0.613282 0.066085
vt 0.491894 0.066085
vt 0.491894 0.179819
vt 0.613282 0.179819
vt 0.613282 0.000332
vt 0.491894 0.000332
vt 0.113547 0.000332
vt 0.113547 0.066085
vt 0.972920 0.976742
vt 0.300508 0.956268
vt 0.300508 0.963135
vt 0.113545 0.986726
vt 0.113545 0.979858
vt 0.491894 0.986725
vt 0.491894 0.979858
vt 0.300509 0.979858
vt 0.300509 0.986726
vt 0.113547 0.963135
vt 0.300510 0.000332
vt 0.300510 0.066085
vt 0.805331 0.227801
vt 0.805331 0.114066
vt 0.613946 0.114066
vt 0.613947 0.227801
vt 0.300509 0.653191
vt 0.300509 0.718944
vt 0.300508 0.947741
vt 0.491894 0.719608
vt 0.300509 0.719608
vt 0.300509 0.833343
vt 0.491894 0.833343
vt 0.983465 0.405934
vt 0.983465 0.228465
vt 0.792080 0.228465
vt 0.792080 0.405934
vt 0.679699 0.983610
vt 0.679699 0.992136
vt 0.492558 0.897078
vt 0.492558 0.719608
vt 0.113546 0.947077
vt 0.113545 0.979193
vt 0.113545 0.970667
vt 0.613281 0.979193
vt 0.613281 0.970667
vt 0.491893 0.970667
vt 0.491893 0.979194
vt 0.613946 0.992800
vt 0.613946 0.999668
vt 0.613282 0.425723
vt 0.491894 0.425723
vt 0.613282 0.359970
vt 0.491894 0.359970
vt 0.613281 0.963800
vt 0.491893 0.963800
vt 0.679699 0.976742
vt 0.113546 0.359970
vt 0.113546 0.425723
vt 0.613946 0.983610
vt 0.613946 0.992136
vt 0.613946 0.862864
vt 0.613946 0.455933
vt 0.791416 0.455933
vt 0.613282 0.293553
vt 0.491894 0.293553
vt 0.613282 0.359306
vt 0.491894 0.359306
vt 0.113546 0.359306
vt 0.113546 0.293553
vt 0.613946 0.976742
vt 0.300508 0.970667
vt 0.300508 0.963799
vt 0.113546 0.987391
vt 0.113546 0.994258
vt 0.491894 0.987391
vt 0.300508 0.987391
vt 0.300508 0.994258
vt 0.491894 0.994258
vt 0.113545 0.963800
vt 0.300510 0.293553
vt 0.300510 0.359306
vt 0.805331 0.000332
vt 0.613946 0.000332
vt 0.300509 0.359970
vt 0.300509 0.425723
vt 0.300508 0.979194
vt 0.491894 0.947077
vt 0.300509 0.947077
vt 0.983465 0.406598
vt 0.792080 0.406598
vt 0.792080 0.584067
vt 0.983465 0.584067
vt 0.791416 0.570332
vt 0.791416 0.456598
vt 0.613946 0.456598
vt 0.613946 0.684066
vt 0.791416 0.684066
vt 0.727681 0.684730
vt 0.613946 0.684730
vt 0.613946 0.862199
vt 0.841415 0.862199
vt 0.841415 0.684730
vn 0.0000 0.0000 -1.0000
vn 1.0000 0.0000 0.0000
vn 0.0000 1.0000 -0.0000
vn -0.0000 0.0000 1.0000
vn 0.0000 -1.0000 0.0000
vn -1.0000 0.0000 -0.0000
usemtl Material
s off
f 7/1/1 6/2/1 30/3/1 31/4/1
f 26/5/2 133/6/2 135/7/2 27/8/2
f 23/9/3 59/10/3 140/11/3 134/12/3
f 21/13/2 22/14/2 132/15/2 131/16/2
f 1/17/2 2/18/2 5/19/2 4/20/2
f 36/21/4 8/22/4 13/23/4 46/24/4
f 6/25/5 9/26/5 33/27/5 30/28/5
f 1/29/5 4/30/5 9/26/5 6/25/5
f 5/19/2 2/18/2 12/31/2 11/32/2
f 7/1/1 31/4/1 43/33/1 3/34/1
f 21/35/5 131/36/5 133/37/5 26/38/5
f 2/39/1 1/40/1 6/2/1 7/1/1
f 27/41/5 135/42/5 144/43/5 64/44/5
f 33/45/1 9/46/1 10/47/1 41/48/1
f 3/49/3 43/50/3 46/51/3 13/52/3
f 12/53/3 3/49/3 13/52/3 11/54/3
f 24/55/3 25/56/3 137/57/3 136/58/3
f 2/39/1 7/1/1 3/34/1 12/59/1
f 15/60/2 5/19/2 11/32/2 19/61/2
f 23/62/6 134/63/6 137/64/6 25/65/6
f 8/66/6 16/67/6 20/68/6 13/69/6
f 22/14/2 15/60/2 19/61/2 24/70/2
f 11/54/3 13/52/3 20/71/3 19/72/3
f 10/73/5 18/74/5 53/75/5 41/76/5
f 4/30/5 14/77/5 17/78/5 9/26/5
f 4/20/2 5/19/2 15/60/2 14/79/2
f 8/80/3 36/81/3 50/82/3 16/83/3
f 9/84/2 17/85/2 18/86/2 10/87/2
f 132/15/2 22/14/2 24/70/2 136/88/2
f 16/67/6 23/62/6 25/65/6 20/68/6
f 19/72/3 20/71/3 25/56/3 24/55/3
f 14/77/5 21/35/5 26/38/5 17/78/5
f 14/79/2 15/60/2 22/14/2 21/13/2
f 16/83/3 50/82/3 59/10/3 23/9/3
f 38/89/1 31/4/1 30/3/1 37/90/1
f 63/91/6 65/92/6 143/93/6 141/94/6
f 60/95/3 142/96/3 140/11/3 59/10/3
f 57/97/6 138/98/6 139/99/6 58/100/6
f 28/101/6 34/102/6 35/103/6 29/104/6
f 36/21/4 46/24/4 47/105/4 39/106/4
f 37/107/5 30/28/5 33/27/5 40/108/5
f 28/109/5 37/107/5 40/108/5 34/110/5
f 35/103/6 44/111/6 45/112/6 29/104/6
f 38/89/1 32/113/1 43/33/1 31/4/1
f 57/114/5 63/115/5 141/116/5 138/117/5
f 29/118/1 38/89/1 37/90/1 28/119/1
f 65/120/5 64/44/5 144/43/5 143/121/5
f 33/45/1 41/48/1 42/122/1 40/123/1
f 32/124/3 47/125/3 46/51/3 43/50/3
f 45/126/3 44/127/3 47/125/3 32/124/3
f 61/128/3 145/129/3 146/130/3 62/131/3
f 29/118/1 45/132/1 32/113/1 38/89/1
f 49/133/6 55/134/6 44/111/6 35/103/6
f 60/135/2 62/136/2 146/137/2 142/138/2
f 39/139/2 47/140/2 56/141/2 51/142/2
f 58/100/6 61/143/6 55/134/6 49/133/6
f 44/127/3 55/144/3 56/145/3 47/125/3
f 42/146/5 41/76/5 53/75/5 54/147/5
f 34/110/5 40/108/5 52/148/5 48/149/5
f 34/102/6 48/150/6 49/133/6 35/103/6
f 39/151/3 51/152/3 50/82/3 36/81/3
f 40/153/6 42/154/6 54/155/6 52/156/6
f 139/99/6 145/157/6 61/143/6 58/100/6
f 51/142/2 56/141/2 62/136/2 60/135/2
f 55/144/3 61/128/3 62/131/3 56/145/3
f 48/149/5 52/148/5 63/115/5 57/114/5
f 48/150/6 57/97/6 58/100/6 49/133/6
f 51/152/3 60/95/3 59/10/3 50/82/3
f 64/158/1 65/159/1 63/160/1 26/161/1 27/162/1
f 53/163/4 18/164/4 17/165/4 52/166/4 54/167/4
f 17/78/5 26/38/5 63/115/5 52/148/5
f 72/168/4 96/169/4 95/170/4 71/171/4
f 91/172/2 92/173/2 135/7/2 133/6/2
f 88/174/3 134/12/3 140/11/3 124/175/3
f 86/176/2 131/16/2 132/15/2 87/177/2
f 66/178/2 69/179/2 70/180/2 67/181/2
f 101/182/1 111/183/1 78/184/1 73/185/1
f 71/186/5 95/187/5 98/188/5 74/189/5
f 66/190/5 71/186/5 74/189/5 69/191/5
f 70/180/2 76/192/2 77/193/2 67/181/2
f 72/168/4 68/194/4 108/195/4 96/169/4
f 86/196/5 91/197/5 133/37/5 131/36/5
f 67/198/4 72/168/4 71/171/4 66/199/4
f 92/200/5 129/201/5 144/43/5 135/42/5
f 98/202/4 106/203/4 75/204/4 74/205/4
f 68/206/3 78/207/3 111/208/3 108/209/3
f 77/210/3 76/211/3 78/207/3 68/206/3
f 89/212/3 136/58/3 137/57/3 90/213/3
f 67/198/4 77/214/4 68/194/4 72/168/4
f 80/215/2 84/216/2 76/192/2 70/180/2
f 88/217/6 90/218/6 137/64/6 134/63/6
f 73/219/6 78/220/6 85/221/6 81/222/6
f 87/177/2 89/223/2 84/216/2 80/215/2
f 76/211/3 84/224/3 85/225/3 78/207/3
f 75/226/5 106/227/5 118/228/5 83/229/5
f 69/191/5 74/189/5 82/230/5 79/231/5
f 69/179/2 79/232/2 80/215/2 70/180/2
f 73/233/3 81/234/3 115/235/3 101/236/3
f 74/237/2 75/238/2 83/239/2 82/240/2
f 132/15/2 136/88/2 89/223/2 87/177/2
f 81/222/6 85/221/6 90/218/6 88/217/6
f 84/224/3 89/212/3 90/213/3 85/225/3
f 79/231/5 82/230/5 91/197/5 86/196/5
f 79/232/2 86/176/2 87/177/2 80/215/2
f 81/234/3 88/174/3 124/175/3 115/235/3
f 103/241/4 102/242/4 95/170/4 96/169/4
f 128/243/6 141/94/6 143/93/6 130/244/6
f 125/245/3 124/175/3 140/11/3 142/96/3
f 122/246/6 123/247/6 139/99/6 138/98/6
f 93/248/6 94/249/6 100/250/6 99/251/6
f 101/182/1 104/252/1 112/253/1 111/183/1
f 102/254/5 105/255/5 98/188/5 95/187/5
f 93/256/5 99/257/5 105/255/5 102/254/5
f 100/250/6 94/249/6 110/258/6 109/259/6
f 103/241/4 96/169/4 108/195/4 97/260/4
f 122/261/5 138/117/5 141/116/5 128/262/5
f 94/263/4 93/264/4 102/242/4 103/241/4
f 130/265/5 143/121/5 144/43/5 129/201/5
f 98/202/4 105/266/4 107/267/4 106/203/4
f 97/268/3 108/209/3 111/208/3 112/269/3
f 110/270/3 97/268/3 112/269/3 109/271/3
f 126/272/3 127/273/3 146/130/3 145/129/3
f 94/263/4 103/241/4 97/260/4 110/274/4
f 114/275/6 100/250/6 109/259/6 120/276/6
f 125/277/2 142/138/2 146/137/2 127/278/2
f 104/279/2 116/280/2 121/281/2 112/282/2
f 123/247/6 114/275/6 120/276/6 126/283/6
f 109/271/3 112/269/3 121/284/3 120/285/3
f 107/286/5 119/287/5 118/228/5 106/227/5
f 99/257/5 113/288/5 117/289/5 105/255/5
f 99/251/6 100/250/6 114/275/6 113/290/6
f 104/291/3 101/236/3 115/235/3 116/292/3
f 105/293/6 117/294/6 119/295/6 107/296/6
f 139/99/6 123/247/6 126/283/6 145/157/6
f 116/280/2 125/277/2 127/278/2 121/281/2
f 120/285/3 121/284/3 127/273/3 126/272/3
f 113/288/5 122/261/5 128/262/5 117/289/5
f 113/290/6 114/275/6 123/247/6 122/246/6
f 116/292/3 115/235/3 124/175/3 125/245/3
f 129/297/4 92/298/4 91/299/4 128/300/4 130/301/4
f 118/302/1 119/303/1 117/304/1 82/305/1 83/306/1
f 82/230/5 117/289/5 128/262/5 91/197/5
