# Blender v2.79 (sub 0) OBJ File: 'Monitor.blend'
# www.blender.org
mtllib Monitor.mtl
o Cube.001
v 0.467911 1.901465 2.757637
v 0.467911 3.127788 2.757637
v 0.467911 2.033616 2.757637
v 0.467911 3.056496 2.757637
v 0.467911 1.901465 2.686820
v 0.467911 3.127788 2.686820
v 0.467911 2.033616 2.686820
v 0.467911 3.056496 2.686820
v 0.467911 3.127788 1.946915
v 0.467911 2.033616 1.946915
v 0.467911 3.056496 1.946915
v 0.467911 1.901465 1.946915
v 0.515684 1.901465 2.757637
v 0.515684 3.127788 2.757637
v 0.491798 3.127788 2.757637
v 0.491798 1.901465 2.757637
v 0.515684 2.033616 2.757637
v 0.491798 2.033616 2.757637
v 0.515684 3.056496 2.757637
v 0.491798 3.056496 2.757637
v 0.515684 1.901465 2.686820
v 0.491798 1.901465 2.686820
v 0.491798 3.127788 2.686820
v 0.515684 3.127788 2.686820
v 0.515684 2.033616 2.686820
v 0.515684 3.056496 2.686820
v 0.515684 3.127788 1.946915
v 0.515684 2.033616 1.946915
v 0.515684 3.056496 1.946915
v 0.515684 1.901465 1.946915
v 0.491798 1.901465 1.946915
v 0.491798 3.127788 1.946915
v 0.438918 1.901465 2.686820
v 0.438918 1.901465 2.757637
v 0.438918 3.056496 2.757637
v 0.438918 3.127788 2.757637
v 0.438918 3.127788 1.946915
v 0.438918 2.033616 2.757637
v 0.438918 2.033616 1.946915
v 0.438918 3.056496 1.946915
v 0.438918 1.901465 1.946915
v 0.438918 3.127788 2.686820
v 0.438918 2.033616 2.686820
v 0.438918 3.056496 2.686820
v 0.467911 1.654611 1.946915
v 0.491798 1.654611 1.946915
v 0.515684 1.654611 1.946915
v 0.467911 1.596629 1.946915
v 0.491798 1.596629 1.946915
v 0.515684 1.596629 1.946915
v 0.297832 1.654611 1.946915
v 0.297832 1.596629 1.946915
v 0.654000 1.596629 1.946915
v 0.654000 1.654611 1.946915
v 0.492825 1.654572 2.166974
v 0.468938 1.654572 2.166974
v 0.516711 1.596591 2.166974
v 0.516711 1.654572 2.166974
v 0.492825 1.596591 2.166974
v 0.468938 1.596591 2.166974
v 0.298859 1.654572 2.166974
v 0.298859 1.596591 2.166974
v 0.655027 1.596591 2.166974
v 0.655027 1.654572 2.166974
v 0.467911 1.901465 0.757637
v 0.467911 3.127788 0.757637
v 0.467911 2.033616 0.757637
v 0.467911 3.056496 0.757637
v 0.467911 1.901465 0.828455
v 0.467911 3.127788 0.828455
v 0.467911 2.033616 0.828455
v 0.467911 3.056496 0.828455
v 0.467911 3.127788 1.568359
v 0.467911 2.033616 1.568359
v 0.467911 3.056496 1.568359
v 0.467911 1.901465 1.568359
v 0.515684 1.901465 0.757637
v 0.515684 3.127788 0.757637
v 0.491798 3.127788 0.757637
v 0.491798 1.901465 0.757637
v 0.515684 2.033616 0.757637
v 0.491798 2.033616 0.757637
v 0.515684 3.056496 0.757637
v 0.491798 3.056496 0.757637
v 0.515684 1.901465 0.828455
v 0.491798 1.901465 0.828455
v 0.491798 3.127788 0.828455
v 0.515684 3.127788 0.828455
v 0.515684 2.033616 0.828455
v 0.515684 3.056496 0.828455
v 0.515684 3.127788 1.568359
v 0.515684 2.033616 1.568359
v 0.515684 3.056496 1.568359
v 0.515684 1.901465 1.568359
v 0.491798 1.901465 1.568359
v 0.491798 3.127788 1.568359
v 0.467911 1.901465 1.757637
v 0.467911 3.127788 1.757637
v 0.467911 2.033616 1.757637
v 0.467911 3.056496 1.757637
v 0.491798 1.596629 1.757637
v 0.491798 3.127788 1.757637
v 0.515684 1.901465 1.757637
v 0.515684 3.127788 1.757637
v 0.515684 2.033616 1.757637
v 0.515684 3.056496 1.757637
v 0.438918 1.901465 0.828455
v 0.438918 1.901465 0.757637
v 0.438918 3.056496 0.757637
v 0.438918 3.127788 0.757637
v 0.438918 3.127788 1.568359
v 0.438918 3.127788 1.757637
v 0.438918 2.033616 1.757637
v 0.438918 1.901465 1.757637
v 0.438918 2.033616 0.757637
v 0.438918 2.033616 1.568359
v 0.438918 3.056496 1.757637
v 0.438918 3.056496 1.568359
v 0.438918 1.901465 1.568359
v 0.438918 3.127788 0.828455
v 0.438918 2.033616 0.828455
v 0.438918 3.056496 0.828455
v 0.467911 1.654611 1.757637
v 0.467911 1.654611 1.568359
v 0.491798 1.654611 1.568359
v 0.515684 1.654611 1.757637
v 0.515684 1.654611 1.568359
v 0.467911 1.596629 1.757637
v 0.467911 1.596629 1.568359
v 0.491798 1.596629 1.568359
v 0.515684 1.596629 1.757637
v 0.515684 1.596629 1.568359
v 0.297832 1.654611 1.757637
v 0.297832 1.654611 1.568359
v 0.297832 1.596629 1.757637
v 0.297832 1.596629 1.568359
v 0.654000 1.596629 1.568359
v 0.654000 1.654611 1.568359
v 0.654000 1.654611 1.757637
v 0.654000 1.596629 1.757637
v 0.492825 1.654572 1.348301
v 0.468938 1.654572 1.348301
v 0.516711 1.596591 1.348301
v 0.516711 1.654572 1.348301
v 0.492825 1.596591 1.348301
v 0.468938 1.596591 1.348301
v 0.298859 1.654572 1.348301
v 0.298859 1.596591 1.348301
v 0.655027 1.596591 1.348301
v 0.655027 1.654572 1.348301
vt 0.624639 0.391936
vt 0.624639 0.410412
vt 0.618448 0.410413
vt 0.618448 0.391936
vt 0.018354 0.970948
vt 0.018354 0.977138
vt 0.000000 0.977138
vt 0.000000 0.970948
vt 0.500000 0.707164
vt 0.500000 0.713355
vt 0.481646 0.713355
vt 0.481646 0.707164
vt 0.618446 0.092577
vt 0.618447 0.126828
vt 0.610932 0.126828
vt 0.610932 0.092577
vt 0.624637 0.092577
vt 0.624637 0.126828
vt 0.191767 0.964757
vt 0.191767 0.699649
vt 0.240823 0.699649
vt 0.240823 0.964757
vt 0.018354 0.984653
vt 0.000000 0.984653
vt 0.691766 0.707164
vt 0.691766 0.713355
vt 0.210120 0.970948
vt 0.210120 0.977138
vt 0.259177 0.970948
vt 0.259177 0.977138
vt 0.533247 0.530830
vt 0.527056 0.530830
vt 0.527056 0.466851
vt 0.533247 0.466851
vt 0.000000 0.964757
vt 0.000000 0.699649
vt 0.630829 0.391936
vt 0.630830 0.410412
vt 0.000000 0.964757
vt 0.018354 0.964757
vt 0.500000 0.719546
vt 0.481646 0.719546
vt 0.210121 0.363337
vt 0.259177 0.363337
vt 0.259177 0.381814
vt 0.210121 0.381814
vt 0.210121 0.063979
vt 0.259177 0.063979
vt 0.259177 0.098230
vt 0.210121 0.098230
vt 0.630828 0.092577
vt 0.630828 0.126828
vt 0.000000 0.098230
vt 0.018354 0.098230
vt 0.018354 0.363337
vt 0.000000 0.363337
vt 0.000000 0.063979
vt 0.018354 0.063979
vt 0.018354 0.381814
vt 0.000000 0.381814
vt 0.691766 0.719546
vt 0.210120 0.964757
vt 0.259177 0.964757
vt 0.740822 0.707164
vt 0.691766 0.699649
vt 0.740822 0.699649
vt 0.500000 0.699649
vt 0.673412 0.727060
vt 0.481646 0.727060
vt 0.481646 0.719546
vt 0.673412 0.719546
vt 0.259177 0.984653
vt 0.210120 0.984653
vt 0.481646 0.727060
vt 0.673412 0.727060
vt 0.673412 0.734575
vt 0.481646 0.734575
vt 0.210121 0.400291
vt 0.210121 0.381814
vt 0.259178 0.381814
vt 0.259178 0.400291
vt 0.210121 0.699649
vt 0.210121 0.665399
vt 0.259178 0.665399
vt 0.259178 0.699649
vt 0.000000 0.665399
vt 0.000000 0.400292
vt 0.018354 0.400292
vt 0.018355 0.665399
vt 0.000000 0.699649
vt 0.018355 0.699649
vt 0.000000 0.381814
vt 0.018354 0.381814
vt 0.481646 0.699649
vt 0.630830 0.357678
vt 0.630830 0.092577
vt 0.638344 0.092577
vt 0.638345 0.357678
vt 0.722469 0.727060
vt 0.722469 0.734575
vt 0.610934 0.410413
vt 0.610934 0.391936
vt 0.722468 0.727060
vt 0.722468 0.719546
vt 0.624446 0.044081
vt 0.575389 0.044081
vt 0.575389 0.000000
vt 0.624446 0.000000
vt 0.575389 0.050271
vt 0.575389 0.056462
vt 0.518355 0.056729
vt 0.518355 0.050538
vt 0.527056 0.402872
vt 0.527056 0.353815
vt 0.591035 0.353815
vt 0.591035 0.402872
vt 0.539438 0.530830
vt 0.539438 0.466851
vt 0.210121 0.000000
vt 0.259177 0.000000
vt 0.624446 0.050271
vt 0.624446 0.056462
vt 0.562435 0.149611
vt 0.518355 0.149611
vt 0.518621 0.092577
vt 0.562702 0.092577
vt 0.575389 0.092311
vt 0.518355 0.092577
vt 0.575390 0.684612
vt 0.624446 0.684612
vt 0.624446 0.699639
vt 0.575390 0.699639
vt 0.575390 0.669584
vt 0.575390 0.684612
vt 0.518355 0.684602
vt 0.518355 0.669574
vt 0.562435 0.198668
vt 0.518355 0.198668
vt 0.624446 0.684612
vt 0.624446 0.669584
vt 0.574817 0.198668
vt 0.574817 0.149611
vt 0.610666 0.149611
vt 0.610666 0.198668
vt 0.624446 0.092311
vt 0.647497 0.652649
vt 0.641306 0.652649
vt 0.641306 0.637621
vt 0.647497 0.637621
vt 0.683346 0.637621
vt 0.683346 0.652649
vt 0.635116 0.652649
vt 0.635116 0.637621
vt 0.591035 0.652649
vt 0.591035 0.637621
vt 0.575083 0.092577
vt 0.610932 0.092577
vt 0.518355 0.044347
vt 0.518355 0.000266
vt 0.568626 0.149611
vt 0.568893 0.092577
vt 0.518355 0.699649
vt 0.518355 0.684622
vt 0.597226 0.604116
vt 0.603417 0.604116
vt 0.603417 0.622594
vt 0.597226 0.622594
vt 0.500000 0.970948
vt 0.518354 0.970948
vt 0.518354 0.977139
vt 0.500000 0.977139
vt 0.981646 0.707164
vt 1.000000 0.707164
vt 1.000000 0.713355
vt 0.981646 0.713355
vt 0.603416 0.304758
vt 0.610931 0.304758
vt 0.610931 0.339008
vt 0.603416 0.339008
vt 0.597226 0.304758
vt 0.597226 0.339008
vt 0.289880 0.964757
vt 0.289880 0.699649
vt 0.518354 0.984653
vt 0.500000 0.984653
vt 0.789879 0.707164
vt 0.789879 0.713355
vt 0.308234 0.970948
vt 0.308234 0.977139
vt 0.533247 0.466851
vt 0.533247 0.402872
vt 0.539438 0.402872
vt 0.539438 0.466851
vt 0.481646 0.964757
vt 0.481646 0.699649
vt 0.591035 0.622594
vt 0.591035 0.604116
vt 0.500000 0.964757
vt 0.518354 0.964757
vt 0.981646 0.719546
vt 1.000000 0.719545
vt 0.308234 0.363337
vt 0.308234 0.381814
vt 0.308234 0.063979
vt 0.308234 0.098230
vt 0.591035 0.339008
vt 0.591035 0.304758
vt 0.518355 0.098230
vt 0.518355 0.363337
vt 0.500000 0.363337
vt 0.500001 0.098230
vt 0.518355 0.063979
vt 0.500000 0.063979
vt 0.518355 0.381814
vt 0.500000 0.381814
vt 0.789879 0.719546
vt 0.308234 0.964757
vt 0.789879 0.699649
vt 0.981646 0.699649
vt 0.771525 0.727060
vt 0.771525 0.719546
vt 0.963292 0.719546
vt 0.963292 0.727060
vt 0.308234 0.984653
vt 0.963291 0.727060
vt 0.963291 0.734575
vt 0.771525 0.734575
vt 0.771525 0.727060
vt 0.308234 0.400291
vt 0.308234 0.381814
vt 0.308234 0.699649
vt 0.308234 0.665399
vt 0.518355 0.665399
vt 0.500001 0.665399
vt 0.500001 0.400291
vt 0.518355 0.400291
vt 0.518355 0.699649
vt 0.500001 0.699649
vt 0.500001 0.381814
vt 0.518355 0.381814
vt 1.000000 0.699649
vt 0.527055 0.569859
vt 0.519541 0.569859
vt 0.519541 0.304758
vt 0.527056 0.304758
vt 0.610932 0.604116
vt 0.610932 0.622594
vt 0.673502 0.000000
vt 0.673502 0.044081
vt 0.673502 0.050271
vt 0.730536 0.050538
vt 0.730536 0.056729
vt 0.673502 0.056462
vt 0.527056 0.304758
vt 0.591035 0.304758
vt 0.527056 0.466851
vt 0.527056 0.402872
vt 0.308234 0.000000
vt 0.562435 0.247724
vt 0.562702 0.304758
vt 0.518621 0.304758
vt 0.518355 0.247724
vt 0.730536 0.092577
vt 0.673502 0.092311
vt 0.673503 0.684612
vt 0.673503 0.699639
vt 0.673503 0.669584
vt 0.730538 0.669574
vt 0.730538 0.684602
vt 0.673503 0.684612
vt 0.610666 0.247724
vt 0.574817 0.247724
vt 0.647497 0.622594
vt 0.647497 0.637621
vt 0.641306 0.637621
vt 0.641306 0.622594
vt 0.683346 0.622594
vt 0.683346 0.637621
vt 0.635116 0.637621
vt 0.635116 0.622594
vt 0.591035 0.637621
vt 0.591035 0.622594
vt 0.610932 0.304758
vt 0.575083 0.304758
vt 0.730536 0.044347
vt 0.730536 0.000266
vt 0.568892 0.304758
vt 0.568626 0.247724
vt 0.730538 0.684622
vt 0.730538 0.699649
vn 0.0000 0.0000 1.0000
vn 0.0000 1.0000 0.0000
vn 0.0000 -1.0000 0.0000
vn -1.0000 0.0000 0.0000
vn 1.0000 0.0000 0.0000
vn 0.0000 0.0000 -1.0000
vn 0.0000 -1.0000 -0.0002
vn 0.0000 1.0000 0.0002
vn 1.0000 0.0000 -0.0047
vn -1.0000 0.0000 0.0047
vn 0.0000 -1.0000 0.0002
vn 0.0000 1.0000 -0.0002
vn 1.0000 0.0000 0.0047
vn -1.0000 0.0000 -0.0047
usemtl Material
s off
f 20/1/1 15/2/1 2/3/1 4/4/1
f 23/5/2 6/6/2 2/7/2 15/8/2
f 5/9/3 22/10/3 16/11/3 1/12/3
f 1/13/1 3/14/1 38/15/1 34/16/1
f 16/17/1 18/18/1 3/14/1 1/13/1
f 10/19/4 11/20/4 100/21/4 99/22/4
f 18/18/1 20/1/1 4/4/1 3/14/1
f 2/7/2 6/6/2 42/23/2 36/24/2
f 12/25/3 31/26/3 22/10/3 5/9/3
f 32/27/2 9/28/2 6/6/2 23/5/2
f 102/29/2 98/30/2 9/28/2 32/27/2
f 31/31/1 12/32/1 45/33/1 46/34/1
f 7/35/4 8/36/4 11/20/4 10/19/4
f 20/1/1 19/37/1 14/38/1 15/2/1
f 23/5/2 15/8/2 14/39/2 24/40/2
f 21/41/3 13/42/3 16/11/3 22/10/3
f 29/43/5 106/44/5 104/45/5 27/46/5
f 30/47/5 103/48/5 105/49/5 28/50/5
f 16/17/1 13/51/1 17/52/1 18/18/1
f 28/50/5 105/49/5 106/44/5 29/43/5
f 18/18/1 17/52/1 19/37/1 20/1/1
f 17/53/5 25/54/5 26/55/5 19/56/5
f 13/57/5 21/58/5 25/54/5 17/53/5
f 19/56/5 26/55/5 24/59/5 14/60/5
f 30/61/3 21/41/3 22/10/3 31/26/3
f 32/27/2 23/5/2 24/40/2 27/62/2
f 102/29/2 32/27/2 27/62/2 104/63/2
f 25/54/5 28/50/5 29/43/5 26/55/5
f 21/58/5 30/47/5 28/50/5 25/54/5
f 26/55/5 29/43/5 27/46/5 24/59/5
f 97/64/3 12/25/3 41/65/3 114/66/3
f 12/25/3 5/9/3 33/67/3 41/65/3
f 11/68/3 8/69/3 44/70/3 40/71/3
f 9/28/2 98/30/2 112/72/2 37/73/2
f 7/74/2 10/75/2 39/76/2 43/77/2
f 40/78/4 37/79/4 112/80/4 117/81/4
f 41/82/4 39/83/4 113/84/4 114/85/4
f 38/86/4 35/87/4 44/88/4 43/89/4
f 34/90/4 38/86/4 43/89/4 33/91/4
f 35/87/4 36/92/4 42/93/4 44/88/4
f 33/91/4 43/89/4 39/83/4 41/82/4
f 44/88/4 42/93/4 37/79/4 40/78/4
f 5/9/3 1/12/3 34/94/3 33/67/3
f 8/95/6 7/96/6 43/97/6 44/98/6
f 10/75/2 99/99/2 113/100/2 39/76/2
f 4/4/1 2/3/1 36/101/1 35/102/1
f 3/14/1 4/4/1 35/102/1 38/15/1
f 6/6/2 9/28/2 37/73/2 42/23/2
f 100/103/3 11/68/3 40/71/3 117/104/3
f 128/105/3 48/106/3 52/107/3 135/108/3
f 49/109/7 50/110/7 57/111/7 59/112/7
f 12/113/4 97/114/4 123/115/4 45/116/4
f 30/117/1 31/31/1 46/34/1 47/118/1
f 103/48/5 30/47/5 47/119/5 126/120/5
f 128/105/3 101/121/3 49/109/3 48/106/3
f 131/122/3 50/110/3 49/109/3 101/121/3
f 45/123/8 51/124/8 61/125/8 56/126/8
f 50/110/7 53/127/7 63/128/7 57/111/7
f 51/129/4 133/130/4 135/131/4 52/132/4
f 53/133/9 54/134/9 64/135/9 63/136/9
f 45/123/2 123/137/2 133/138/2 51/124/2
f 139/139/5 54/134/5 53/133/5 140/140/5
f 126/141/2 47/142/2 54/143/2 139/144/2
f 50/110/3 131/122/3 140/145/3 53/127/3
f 58/146/1 55/147/1 59/148/1 57/149/1
f 58/146/1 57/149/1 63/150/1 64/151/1
f 55/147/1 56/152/1 60/153/1 59/148/1
f 60/153/1 56/152/1 61/154/1 62/155/1
f 54/143/8 47/142/8 58/156/8 64/157/8
f 48/106/7 49/109/7 59/112/7 60/158/7
f 52/107/7 48/106/7 60/158/7 62/159/7
f 47/142/8 46/160/8 55/161/8 58/156/8
f 46/160/8 45/123/8 56/126/8 55/161/8
f 51/129/10 52/132/10 62/162/10 61/163/10
f 84/164/6 68/165/6 66/166/6 79/167/6
f 87/168/2 79/169/2 66/170/2 70/171/2
f 69/172/3 65/173/3 80/174/3 86/175/3
f 65/176/6 108/177/6 115/178/6 67/179/6
f 80/180/6 65/176/6 67/179/6 82/181/6
f 74/182/4 99/22/4 100/21/4 75/183/4
f 82/181/6 67/179/6 68/165/6 84/164/6
f 66/170/2 110/184/2 120/185/2 70/171/2
f 76/186/3 69/172/3 86/175/3 95/187/3
f 96/188/2 87/168/2 70/171/2 73/189/2
f 102/29/2 96/188/2 73/189/2 98/30/2
f 95/190/6 125/191/6 124/192/6 76/193/6
f 71/194/4 74/182/4 75/183/4 72/195/4
f 84/164/6 79/167/6 78/196/6 83/197/6
f 87/168/2 88/198/2 78/199/2 79/169/2
f 85/200/3 86/175/3 80/174/3 77/201/3
f 93/202/5 91/203/5 104/45/5 106/44/5
f 94/204/5 92/205/5 105/49/5 103/48/5
f 80/180/6 82/181/6 81/206/6 77/207/6
f 92/205/5 93/202/5 106/44/5 105/49/5
f 82/181/6 84/164/6 83/197/6 81/206/6
f 81/208/5 83/209/5 90/210/5 89/211/5
f 77/212/5 81/208/5 89/211/5 85/213/5
f 83/209/5 78/214/5 88/215/5 90/210/5
f 94/216/3 95/187/3 86/175/3 85/200/3
f 96/188/2 91/217/2 88/198/2 87/168/2
f 102/29/2 104/63/2 91/217/2 96/188/2
f 89/211/5 90/210/5 93/202/5 92/205/5
f 85/213/5 89/211/5 92/205/5 94/204/5
f 90/210/5 88/215/5 91/203/5 93/202/5
f 97/64/3 114/66/3 119/218/3 76/186/3
f 76/186/3 119/218/3 107/219/3 69/172/3
f 75/220/3 118/221/3 122/222/3 72/223/3
f 73/189/2 111/224/2 112/72/2 98/30/2
f 71/225/2 121/226/2 116/227/2 74/228/2
f 118/229/4 117/81/4 112/80/4 111/230/4
f 119/231/4 114/85/4 113/84/4 116/232/4
f 115/233/4 121/234/4 122/235/4 109/236/4
f 108/237/4 107/238/4 121/234/4 115/233/4
f 109/236/4 122/235/4 120/239/4 110/240/4
f 107/238/4 119/231/4 116/232/4 121/234/4
f 122/235/4 118/229/4 111/230/4 120/239/4
f 69/172/3 107/219/3 108/241/3 65/173/3
f 72/242/1 122/243/1 121/244/1 71/245/1
f 74/228/2 116/227/2 113/100/2 99/99/2
f 68/165/6 109/246/6 110/247/6 66/166/6
f 67/179/6 115/178/6 109/246/6 68/165/6
f 70/171/2 120/185/2 111/224/2 73/189/2
f 100/103/3 117/104/3 118/221/3 75/220/3
f 128/105/3 135/108/3 136/248/3 129/249/3
f 130/250/11 145/251/11 143/252/11 132/253/11
f 76/254/4 124/255/4 123/115/4 97/114/4
f 94/256/6 127/257/6 125/191/6 95/190/6
f 103/48/5 126/120/5 127/258/5 94/204/5
f 128/105/3 129/249/3 130/250/3 101/121/3
f 131/122/3 101/121/3 130/250/3 132/253/3
f 124/259/12 142/260/12 147/261/12 134/262/12
f 132/253/11 143/252/11 149/263/11 137/264/11
f 134/265/4 136/266/4 135/131/4 133/130/4
f 137/267/13 149/268/13 150/269/13 138/270/13
f 124/259/2 134/262/2 133/138/2 123/137/2
f 139/139/5 140/140/5 137/267/5 138/270/5
f 126/141/2 139/144/2 138/271/2 127/272/2
f 132/253/3 137/264/3 140/145/3 131/122/3
f 144/273/6 143/274/6 145/275/6 141/276/6
f 144/273/6 150/277/6 149/278/6 143/274/6
f 141/276/6 145/275/6 146/279/6 142/280/6
f 146/279/6 148/281/6 147/282/6 142/280/6
f 138/271/12 150/283/12 144/284/12 127/272/12
f 129/249/11 146/285/11 145/251/11 130/250/11
f 136/248/11 148/286/11 146/285/11 129/249/11
f 127/272/12 144/284/12 141/287/12 125/288/12
f 125/288/12 141/287/12 142/260/12 124/259/12
f 134/265/14 147/289/14 148/290/14 136/266/14
