# Blender v2.79 (sub 0) OBJ File: 'projectionscreen.blend'
# www.blender.org
mtllib projectionscreen.mtl
o Cube
v 0.075098 7.141634 4.835202
v -0.075098 7.141634 4.835202
v 0.075098 7.581301 4.835202
v -0.075098 7.581301 4.835202
v -0.205055 7.361461 4.835202
v 0.205055 7.361461 4.835202
v -0.172951 7.496989 4.835202
v 0.172951 7.496989 4.835202
v -0.172951 7.225936 4.835202
v 0.172951 7.225936 4.835202
v 0.205055 7.361461 5.097361
v 0.172951 7.496989 5.097361
v -0.205055 7.361461 5.097361
v -0.172951 7.496989 5.097361
v 0.075098 7.581301 5.097361
v -0.075098 7.581301 5.097361
v 0.075098 7.141634 5.097361
v 0.172951 7.225936 5.097361
v -0.075098 7.141634 5.097361
v -0.172951 7.225936 5.097361
v -0.075098 7.581301 4.720438
v -0.172951 7.496989 4.720438
v -0.205055 7.361461 4.720438
v -0.172951 7.225937 4.720438
v -0.075098 7.141635 4.720438
v 0.075098 7.141635 4.720438
v 0.172951 7.225937 4.720438
v 0.205055 7.361461 4.720438
v 0.172951 7.496989 4.720438
v 0.075098 7.581301 4.720438
v -0.017401 7.141634 4.835202
v -0.017401 7.141634 5.097361
v -0.017401 7.141635 4.720438
v -0.075098 0.683501 4.720431
v -0.017401 0.683501 4.720431
v -0.075098 0.793916 4.720431
v -0.017401 0.793916 4.720431
v 0.052133 0.683501 4.720431
v 0.052133 0.793916 4.720431
v -0.075098 7.581316 0.479445
v -0.172951 7.497004 0.479445
v -0.205055 7.361476 0.479445
v -0.172951 7.225952 0.479445
v -0.075098 7.141650 0.479445
v 0.075098 7.141650 0.479445
v 0.172951 7.225952 0.479445
v 0.205055 7.361476 0.479445
v 0.172951 7.497004 0.479445
v 0.075098 7.581316 0.479445
v -0.017401 7.141650 0.479489
v -0.075098 0.683516 0.479489
v -0.017401 0.683516 0.479489
v -0.017401 0.793931 0.479489
v -0.075098 0.793931 0.479489
v 0.052133 0.683516 0.479489
v 0.052133 0.793931 0.479489
v -0.017401 7.141650 0.496572
v -0.017401 0.683516 0.496572
v -0.075098 0.793931 0.496572
v 0.052133 0.683516 0.496572
v -0.075098 7.581316 0.496528
v -0.172951 7.497004 0.496528
v -0.205055 7.361476 0.496528
v -0.172951 7.225952 0.496528
v -0.075098 7.141650 0.496528
v 0.075098 7.141650 0.496528
v 0.172951 7.225952 0.496528
v 0.205055 7.361476 0.496528
v 0.172951 7.497004 0.496528
v 0.075098 7.581316 0.496528
v -0.075098 0.683516 0.496572
v -0.017401 0.793931 0.496572
v 0.052133 0.793931 0.496572
v -0.017401 0.536012 0.479488
v 0.052133 0.536012 0.479488
v -0.017401 0.536012 0.496571
v 0.052133 0.536012 0.496571
v 0.052133 0.561615 0.479488
v -0.017401 0.561615 0.479488
v 0.052133 0.561615 0.496571
v -0.017401 0.561615 0.496571
v 0.052133 0.536014 0.010425
v 0.052133 0.561617 0.010425
v -0.017401 0.561617 0.010425
v -0.017401 0.536014 0.010425
v 0.025807 0.683501 4.720431
v 0.025807 0.793916 4.720431
v 0.025807 0.793931 0.479489
v 0.025807 0.683516 0.479489
v 0.025807 0.683516 0.496572
v 0.025807 0.793931 0.496572
v 0.025807 0.536012 0.479488
v 0.025807 0.536012 0.496571
v 0.025807 0.561615 0.496571
v 0.025807 0.561615 0.479488
v 0.025807 0.536014 0.010425
v 0.025807 0.561617 0.010425
v 0.052133 0.185248 0.010423
v 0.025807 0.185248 0.010423
v 0.061536 0.497711 0.006950
v 0.071455 0.497711 0.006950
v 0.075098 7.141634 -4.835202
v -0.075098 7.141634 -4.835202
v 0.075098 7.581301 -4.835202
v -0.075098 7.581301 -4.835202
v -0.205055 7.361461 -4.835202
v 0.205055 7.361461 -4.835202
v -0.172951 7.496989 -4.835202
v 0.172951 7.496989 -4.835202
v -0.172951 7.225936 -4.835202
v 0.172951 7.225936 -4.835202
v -0.075098 7.581318 0.000000
v -0.172951 7.497005 0.000000
v -0.205055 7.361478 0.000000
v -0.172951 7.225954 0.000000
v -0.075098 7.141652 0.000000
v 0.075098 7.141652 0.000000
v 0.172951 7.225954 0.000000
v 0.205055 7.361478 0.000000
v 0.172951 7.497005 0.000000
v 0.075098 7.581318 0.000000
v 0.205055 7.361461 -5.097361
v 0.172951 7.496989 -5.097361
v -0.205055 7.361461 -5.097361
v -0.172951 7.496989 -5.097361
v 0.075098 7.581301 -5.097361
v -0.075098 7.581301 -5.097361
v 0.075098 7.141634 -5.097361
v 0.172951 7.225936 -5.097361
v -0.075098 7.141634 -5.097361
v -0.172951 7.225936 -5.097361
v -0.075098 7.581301 -4.720438
v -0.172951 7.496989 -4.720438
v -0.205055 7.361461 -4.720438
v -0.172951 7.225937 -4.720438
v -0.075098 7.141635 -4.720438
v 0.075098 7.141635 -4.720438
v 0.172951 7.225937 -4.720438
v 0.205055 7.361461 -4.720438
v 0.172951 7.496989 -4.720438
v 0.075098 7.581301 -4.720438
v -0.017401 7.141652 0.000000
v -0.017401 7.141634 -4.835202
v -0.017401 7.141634 -5.097361
v -0.017401 7.141635 -4.720438
v -0.075098 0.683501 -4.720431
v -0.075098 0.683518 0.000000
v -0.017401 0.683518 0.000000
v -0.017401 0.683501 -4.720431
v -0.075098 0.793933 0.000000
v -0.075098 0.793916 -4.720431
v -0.017401 0.793916 -4.720431
v -0.017401 0.793933 0.000000
v 0.052133 0.683518 0.000000
v 0.052133 0.683501 -4.720431
v 0.052133 0.793916 -4.720431
v 0.052133 0.793933 0.000000
v -0.075098 7.581316 -0.479445
v -0.172951 7.497004 -0.479445
v -0.205055 7.361476 -0.479445
v -0.172951 7.225952 -0.479445
v -0.075098 7.141650 -0.479445
v 0.075098 7.141650 -0.479445
v 0.172951 7.225952 -0.479445
v 0.205055 7.361476 -0.479445
v 0.172951 7.497004 -0.479445
v 0.075098 7.581316 -0.479445
v -0.017401 7.141650 -0.479489
v -0.075098 0.683516 -0.479489
v -0.017401 0.683516 -0.479489
v -0.017401 0.793931 -0.479489
v -0.075098 0.793931 -0.479489
v 0.052133 0.683516 -0.479489
v 0.052133 0.793931 -0.479489
v -0.017401 7.141650 -0.496572
v -0.017401 0.683516 -0.496572
v -0.075098 0.793931 -0.496572
v 0.052133 0.683516 -0.496572
v -0.075098 7.581316 -0.496528
v -0.172951 7.497004 -0.496528
v -0.205055 7.361476 -0.496528
v -0.172951 7.225952 -0.496528
v -0.075098 7.141650 -0.496528
v 0.075098 7.141650 -0.496528
v 0.172951 7.225952 -0.496528
v 0.205055 7.361476 -0.496528
v 0.172951 7.497004 -0.496528
v 0.075098 7.581316 -0.496528
v -0.075098 0.683516 -0.496572
v -0.017401 0.793931 -0.496572
v 0.052133 0.793931 -0.496572
v -0.017401 0.536012 -0.479488
v 0.052133 0.536012 -0.479488
v -0.017401 0.536012 -0.496571
v 0.052133 0.536012 -0.496571
v 0.052133 0.561615 -0.479488
v -0.017401 0.561615 -0.479488
v 0.052133 0.561615 -0.496571
v -0.017401 0.561615 -0.496571
v -0.017401 0.536014 0.000000
v 0.052133 0.536014 0.000000
v 0.052133 0.561617 0.000000
v -0.017401 0.561617 0.000000
v 0.052133 0.536014 -0.010425
v 0.052133 0.561617 -0.010425
v -0.017401 0.561617 -0.010425
v -0.017401 0.536014 -0.010425
v 0.025807 0.683501 -4.720431
v 0.025807 0.793916 -4.720431
v 0.025807 0.683518 0.000000
v 0.025807 0.793933 0.000000
v 0.025807 0.793931 -0.479489
v 0.025807 0.683516 -0.479489
v 0.025807 0.683516 -0.496572
v 0.025807 0.793931 -0.496572
v 0.025807 0.536012 -0.479488
v 0.025807 0.536012 -0.496571
v 0.025807 0.561615 -0.496571
v 0.025807 0.561615 -0.479488
v 0.025807 0.536014 0.000000
v 0.025807 0.561617 0.000000
v 0.025807 0.536014 -0.010425
v 0.025807 0.561617 -0.010425
v 0.025807 0.185248 0.000000
v 0.052133 0.185248 0.000000
v 0.052133 0.185248 -0.010423
v 0.025807 0.185248 -0.010423
v 0.071455 0.497711 0.000000
v 0.061536 0.497711 0.000000
v 0.061536 0.497711 -0.006950
v 0.071455 0.497711 -0.006950
vt 0.471532 0.727423
vt 0.471532 0.714238
vt 0.520478 0.714237
vt 0.520478 0.727422
vt 0.026899 0.741645
vt 0.026899 0.755862
vt 0.000138 0.755862
vt 0.000138 0.741645
vt 0.471532 0.698906
vt 0.520478 0.698906
vt 0.026900 0.784378
vt 0.026899 0.797563
vt 0.000139 0.797563
vt 0.000139 0.784378
vt 0.026899 0.727427
vt 0.000138 0.727428
vt 0.026899 0.825997
vt 0.026899 0.839181
vt 0.000139 0.839181
vt 0.000139 0.825997
vt 0.026899 0.769046
vt 0.000138 0.769046
vt 0.026900 0.774936
vt 0.000139 0.774936
vt 0.026899 0.714242
vt 0.000138 0.714243
vt 0.026899 0.811780
vt 0.000139 0.811780
vt 0.026899 0.698911
vt 0.000138 0.698911
vt 0.620362 0.707511
vt 0.630351 0.698906
vt 0.636241 0.698906
vt 0.645683 0.698906
vt 0.655672 0.707511
vt 0.658949 0.721345
vt 0.655672 0.735180
vt 0.645683 0.743786
vt 0.630351 0.743786
vt 0.620362 0.735180
vt 0.617085 0.721345
vt 0.471532 0.741640
vt 0.520478 0.741640
vt 0.471532 0.755857
vt 0.520478 0.755857
vt 0.471532 0.769042
vt 0.520478 0.769041
vt 0.471521 0.774942
vt 0.520466 0.774942
vt 0.520471 0.784384
vt 0.471525 0.784384
vt 0.520471 0.797569
vt 0.471525 0.797568
vt 0.520470 0.811786
vt 0.471525 0.811785
vt 0.520470 0.826003
vt 0.471525 0.826002
vt 0.520470 0.839188
vt 0.471525 0.839187
vt 0.038614 0.825997
vt 0.038614 0.839181
vt 0.038614 0.811780
vt 0.038614 0.797563
vt 0.038614 0.784378
vt 0.038615 0.774936
vt 0.038614 0.755862
vt 0.038615 0.769046
vt 0.038614 0.741645
vt 0.038614 0.727427
vt 0.038614 0.698911
vt 0.038614 0.714242
vt 0.074655 0.027223
vt 0.015300 0.021506
vt 0.015999 0.007444
vt 0.076419 0.011789
vt 0.016484 0.000138
vt 0.077203 0.004166
vt 0.003555 0.859851
vt 0.003568 0.851120
vt 0.005650 0.851123
vt 0.005636 0.859854
vt 0.530116 0.083426
vt 0.520452 0.085375
vt 0.516201 0.072511
vt 0.523109 0.065501
vt 0.533296 0.698618
vt 0.522559 0.698629
vt 0.942655 0.696505
vt 0.939474 0.081311
vt 0.051175 0.698293
vt 0.000138 0.697147
vt 0.339618 0.862438
vt 0.339650 0.851639
vt 0.341151 0.848447
vt 0.397806 0.845030
vt 0.397994 0.848141
vt 0.341338 0.851558
vt 0.339486 0.866026
vt 0.005661 0.865672
vt 0.398849 0.864237
vt 0.341659 0.865912
vt 0.341528 0.862539
vt 0.398744 0.861100
vt 0.558461 0.725429
vt 0.560834 0.724461
vt 0.561248 0.725607
vt 0.558962 0.726149
vt 0.062874 0.698628
vt 0.077405 0.027436
vt 0.999862 0.696287
vt 0.953392 0.696528
vt 0.950211 0.081334
vt 0.996681 0.081094
vt 0.078737 0.012017
vt 0.079491 0.004372
vt 0.469781 0.826002
vt 0.469781 0.839187
vt 0.469781 0.811785
vt 0.469781 0.797568
vt 0.469781 0.784384
vt 0.469777 0.774942
vt 0.469789 0.769042
vt 0.469788 0.755857
vt 0.469788 0.741640
vt 0.469788 0.727423
vt 0.469788 0.698906
vt 0.469788 0.714238
vt 0.005626 0.845294
vt 0.339626 0.845809
vt 0.659225 0.703316
vt 0.660969 0.703316
vt 0.660969 0.706004
vt 0.659225 0.706004
vt 0.716870 0.701519
vt 0.715126 0.701519
vt 0.715126 0.698906
vt 0.716870 0.698906
vt 0.718890 0.701519
vt 0.717146 0.701519
vt 0.717146 0.698906
vt 0.718890 0.698906
vt 0.663636 0.708893
vt 0.659225 0.708893
vt 0.659225 0.706280
vt 0.663636 0.706280
vt 0.663636 0.721337
vt 0.659225 0.721337
vt 0.718890 0.713963
vt 0.717146 0.713963
vt 0.716870 0.713963
vt 0.715126 0.713963
vt 0.669286 0.718723
vt 0.666599 0.718723
vt 0.666599 0.706280
vt 0.669286 0.706280
vt 0.557126 0.727176
vt 0.557883 0.727763
vt 0.708850 0.703316
vt 0.708850 0.698906
vt 0.709914 0.698906
vt 0.709914 0.703316
vt 0.554938 0.732824
vt 0.555001 0.729883
vt 0.555830 0.730042
vt 0.556367 0.732824
vt 0.520755 0.707607
vt 0.522131 0.705741
vt 0.660969 0.698906
vt 0.524475 0.702602
vt 0.525892 0.700726
vt 0.527275 0.698906
vt 0.708850 0.706004
vt 0.673697 0.718723
vt 0.673697 0.706280
vt 0.666323 0.721337
vt 0.666323 0.708893
vt 0.666323 0.706280
vt 0.659225 0.698906
vt 0.341862 0.871372
vt 0.339685 0.871503
vt 0.005614 0.839464
vt 0.339614 0.839980
vt 0.399028 0.869388
vt 0.005683 0.871494
vt 0.340843 0.843342
vt 0.397498 0.839925
vt 0.000138 0.859845
vt 0.000152 0.851114
vt 0.615783 0.712280
vt 0.616809 0.715686
vt 0.615461 0.716092
vt 0.614434 0.712686
vt 0.568019 0.725983
vt 0.567627 0.724961
vt 0.615753 0.717671
vt 0.567548 0.723421
vt 0.567247 0.722386
vt 0.614076 0.711123
vt 0.714850 0.730803
vt 0.713837 0.730803
vt 0.710190 0.698906
vt 0.712878 0.698906
vt 0.712878 0.734729
vt 0.710190 0.734729
vt 0.560716 0.724063
vt 0.561338 0.730556
vt 0.560520 0.729172
vt 0.471532 0.727423
vt 0.471532 0.714238
vt 0.026899 0.741645
vt 0.000138 0.741645
vt 0.000138 0.755862
vt 0.026899 0.755862
vt 0.471532 0.698906
vt 0.026900 0.784378
vt 0.000139 0.784378
vt 0.000139 0.797563
vt 0.026899 0.797563
vt 0.026899 0.727427
vt 0.000138 0.727428
vt 0.026899 0.825997
vt 0.000139 0.825997
vt 0.000139 0.839181
vt 0.026899 0.839181
vt 0.000138 0.769046
vt 0.026899 0.769046
vt 0.026900 0.774936
vt 0.000139 0.774936
vt 0.026899 0.714242
vt 0.000138 0.714243
vt 0.000139 0.811780
vt 0.026899 0.811780
vt 0.026899 0.698911
vt 0.000138 0.698911
vt 0.620362 0.707511
vt 0.617085 0.721345
vt 0.620362 0.735180
vt 0.630351 0.743786
vt 0.645683 0.743786
vt 0.655672 0.735180
vt 0.658949 0.721345
vt 0.655672 0.707511
vt 0.645683 0.698906
vt 0.636241 0.698906
vt 0.630351 0.698906
vt 0.471532 0.741640
vt 0.471532 0.755857
vt 0.471532 0.769042
vt 0.471521 0.774942
vt 0.471525 0.784384
vt 0.471525 0.797568
vt 0.471525 0.811785
vt 0.471525 0.826002
vt 0.471525 0.839187
vt 0.038614 0.839181
vt 0.038614 0.825997
vt 0.038614 0.811780
vt 0.038614 0.797563
vt 0.038614 0.784378
vt 0.038615 0.774936
vt 0.038615 0.769046
vt 0.038614 0.755862
vt 0.038614 0.741645
vt 0.038614 0.727427
vt 0.038614 0.714242
vt 0.038614 0.698911
vt 0.074655 0.027223
vt 0.076419 0.011789
vt 0.077203 0.004166
vt 0.003555 0.859851
vt 0.005636 0.859854
vt 0.005650 0.851123
vt 0.003568 0.851120
vt 0.530116 0.083426
vt 0.523109 0.065501
vt 0.516201 0.072511
vt 0.520452 0.085375
vt 0.533296 0.698618
vt 0.522559 0.698629
vt 0.942655 0.696505
vt 0.939474 0.081311
vt 0.051175 0.698293
vt 0.339618 0.862438
vt 0.339650 0.851639
vt 0.341151 0.848447
vt 0.341338 0.851558
vt 0.339486 0.866026
vt 0.005661 0.865672
vt 0.341528 0.862539
vt 0.341659 0.865912
vt 0.558461 0.725429
vt 0.560834 0.724461
vt 0.062874 0.698628
vt 0.077405 0.027436
vt 0.950211 0.081334
vt 0.953392 0.696528
vt 0.078737 0.012017
vt 0.079491 0.004372
vt 0.469781 0.826002
vt 0.469781 0.839187
vt 0.469781 0.811785
vt 0.469781 0.797568
vt 0.469781 0.784384
vt 0.469777 0.774942
vt 0.469789 0.769042
vt 0.469788 0.755857
vt 0.469788 0.741640
vt 0.469788 0.727423
vt 0.469788 0.698906
vt 0.469788 0.714238
vt 0.005626 0.845294
vt 0.339626 0.845809
vt 0.659225 0.703316
vt 0.659225 0.706004
vt 0.660969 0.706004
vt 0.660969 0.703316
vt 0.716870 0.701519
vt 0.716870 0.698906
vt 0.715126 0.698906
vt 0.715126 0.701519
vt 0.718890 0.701519
vt 0.718890 0.698906
vt 0.717146 0.698906
vt 0.717146 0.701519
vt 0.663636 0.708893
vt 0.663636 0.706280
vt 0.659225 0.706280
vt 0.659225 0.708893
vt 0.663636 0.721337
vt 0.659225 0.721337
vt 0.718890 0.713963
vt 0.717146 0.713963
vt 0.716870 0.713963
vt 0.715126 0.713963
vt 0.669286 0.718723
vt 0.669286 0.706280
vt 0.666599 0.706280
vt 0.666599 0.718723
vt 0.557126 0.727176
vt 0.708850 0.703316
vt 0.708850 0.698906
vt 0.554938 0.732824
vt 0.555001 0.729883
vt 0.520755 0.707607
vt 0.522131 0.705741
vt 0.660969 0.698906
vt 0.524475 0.702602
vt 0.525892 0.700726
vt 0.527275 0.698906
vt 0.708850 0.706004
vt 0.673697 0.718723
vt 0.673697 0.706280
vt 0.666323 0.721337
vt 0.666323 0.708893
vt 0.666323 0.706280
vt 0.659225 0.698906
vt 0.341862 0.871372
vt 0.339685 0.871503
vt 0.005614 0.839464
vt 0.339614 0.839980
vt 0.005683 0.871494
vt 0.340843 0.843342
vt 0.000138 0.859845
vt 0.000152 0.851114
vt 0.615783 0.712280
vt 0.616809 0.715686
vt 0.568019 0.725983
vt 0.615753 0.717671
vt 0.614076 0.711123
vt 0.567247 0.722386
vt 0.714850 0.730803
vt 0.712878 0.698906
vt 0.710190 0.698906
vt 0.713837 0.730803
vt 0.712878 0.734729
vt 0.710190 0.734729
vt 0.560716 0.724063
vt 0.561338 0.730556
vn -0.6527 0.7576 0.0000
vn -0.9731 -0.2305 0.0000
vn 0.0000 1.0000 0.0000
vn 0.6527 -0.7576 0.0000
vn -0.9731 0.2305 0.0000
vn 0.6527 0.7576 0.0000
vn -0.6527 -0.7576 0.0000
vn 0.0000 -1.0000 0.0000
vn 0.9731 -0.2305 0.0000
vn 0.9731 0.2305 0.0000
vn 0.0000 0.0000 1.0000
vn -1.0000 0.0000 0.0000
vn 1.0000 0.0000 -0.0000
vn 0.0000 0.0000 -1.0000
vn -0.9935 0.1136 0.0000
vn 0.9981 -0.0617 -0.0000
vn 0.0000 0.0111 0.9999
vn 0.0000 -0.0904 0.9959
vn 0.8928 0.4504 0.0000
vn -0.7312 -0.6821 0.0000
vn 0.0000 0.0111 -0.9999
vn 0.0000 -0.0904 -0.9959
usemtl Material
s off
f 41/1/1 40/2/1 112/3/1 113/4/1
f 5/5/2 9/6/2 20/7/2 13/8/2
f 49/9/3 121/10/3 112/3/3 40/2/3
f 1/11/4 10/12/4 18/13/4 17/14/4
f 7/15/5 5/5/5 13/8/5 14/16/5
f 8/17/6 3/18/6 15/19/6 12/20/6
f 9/6/7 2/21/7 19/22/7 20/7/7
f 31/23/8 1/11/8 17/14/8 32/24/8
f 4/25/1 7/15/1 14/16/1 16/26/1
f 10/12/9 6/27/9 11/28/9 18/13/9
f 3/29/3 4/25/3 16/26/3 15/30/3
f 6/27/10 8/17/10 12/20/10 11/28/10
f 20/31/11 19/32/11 32/33/11 17/34/11 18/35/11 11/36/11 12/37/11 15/38/11 16/39/11 14/40/11 13/41/11
f 42/42/5 41/1/5 113/4/5 114/43/5
f 43/44/2 42/42/2 114/43/2 115/45/2
f 44/46/7 43/44/7 115/45/7 116/47/7
f 50/48/8 142/49/8 117/50/8 45/51/8
f 45/51/4 117/50/4 118/52/4 46/53/4
f 46/53/9 118/52/9 119/54/9 47/55/9
f 47/55/10 119/54/10 120/56/10 48/57/10
f 48/57/6 120/56/6 121/58/6 49/59/6
f 8/17/6 29/60/6 30/61/6 3/18/6
f 6/27/10 28/62/10 29/60/10 8/17/10
f 10/12/9 27/63/9 28/62/9 6/27/9
f 1/11/4 26/64/4 27/63/4 10/12/4
f 31/23/8 33/65/8 26/64/8 1/11/8
f 2/21/7 9/6/7 24/66/7 25/67/7
f 9/6/2 5/5/2 23/68/2 24/66/2
f 5/5/5 7/15/5 22/69/5 23/68/5
f 3/29/3 30/70/3 21/71/3 4/25/3
f 7/15/1 4/25/1 21/71/1 22/69/1
f 2/21/8 25/67/8 33/65/8 31/23/8
f 54/72/12 150/73/12 147/74/12 51/75/12
f 2/21/8 31/23/8 32/24/8 19/22/8
f 51/75/8 147/74/8 148/76/8 52/77/8
f 87/78/11 86/79/11 38/80/11 39/81/11
f 37/82/11 36/83/11 34/84/11 35/85/11
f 33/86/11 25/87/11 36/83/11 37/82/11
f 57/88/13 33/86/13 37/82/13 72/89/13
f 44/90/12 116/91/12 150/73/12 54/72/12
f 73/92/13 39/81/13 38/80/13 60/93/13
f 89/94/8 210/95/8 154/96/8 55/97/8
f 91/98/3 87/99/3 39/81/3 73/92/3
f 211/100/3 88/101/3 56/102/3 157/103/3
f 83/104/13 82/105/13 201/106/13 202/107/13
f 157/103/13 56/102/13 55/97/13 154/96/13
f 65/108/12 44/90/12 54/72/12 59/109/12
f 142/110/13 50/111/13 53/112/13 153/113/13
f 71/114/8 51/75/8 52/77/8 58/115/8
f 59/109/12 54/72/12 51/75/12 71/114/12
f 69/116/6 48/57/6 49/59/6 70/117/6
f 68/118/10 47/55/10 48/57/10 69/116/10
f 67/119/9 46/53/9 47/55/9 68/118/9
f 66/120/4 45/51/4 46/53/4 67/119/4
f 57/121/8 50/48/8 45/51/8 66/120/8
f 65/122/7 64/123/7 43/44/7 44/46/7
f 64/123/2 63/124/2 42/42/2 43/44/2
f 63/124/5 62/125/5 41/1/5 42/42/5
f 70/126/3 49/9/3 40/2/3 61/127/3
f 62/125/1 61/127/1 40/2/1 41/1/1
f 22/69/1 21/71/1 61/127/1 62/125/1
f 30/70/3 70/126/3 61/127/3 21/71/3
f 23/68/5 22/69/5 62/125/5 63/124/5
f 24/66/2 23/68/2 63/124/2 64/123/2
f 25/67/7 24/66/7 64/123/7 65/122/7
f 33/65/8 57/121/8 66/120/8 26/64/8
f 26/64/4 66/120/4 67/119/4 27/63/4
f 27/63/9 67/119/9 68/118/9 28/62/9
f 28/62/10 68/118/10 69/116/10 29/60/10
f 29/60/6 69/116/6 70/117/6 30/61/6
f 36/83/12 59/109/12 71/114/12 34/84/12
f 34/84/8 71/114/8 58/115/8 35/85/8
f 25/87/12 65/108/12 59/109/12 36/83/12
f 86/128/8 90/129/8 60/93/8 38/80/8
f 88/101/3 91/98/3 73/92/3 56/102/3
f 56/102/13 73/92/13 60/93/13 55/97/13
f 50/111/13 57/88/13 72/89/13 53/112/13
f 93/130/8 92/131/8 75/132/8 77/133/8
f 78/134/13 80/135/13 77/136/13 75/137/13
f 81/138/12 79/139/12 74/140/12 76/141/12
f 94/142/11 81/143/11 76/144/11 93/145/11
f 90/146/11 58/147/11 81/143/11 94/142/11
f 58/148/12 52/149/12 79/139/12 81/138/12
f 55/150/13 60/151/13 80/135/13 78/134/13
f 89/152/14 55/153/14 78/154/14 95/155/14
f 97/156/3 83/104/3 202/107/3 221/157/3
f 96/158/8 85/159/8 200/160/8 220/161/8
f 85/162/12 84/163/12 203/164/12 200/165/12
f 74/166/12 79/167/12 84/163/12 85/162/12
f 92/131/8 74/168/8 85/159/8 96/158/8
f 95/169/3 78/170/3 83/104/3 97/156/3
f 78/170/13 75/171/13 82/105/13 83/104/13
f 79/167/3 95/169/3 97/156/3 84/163/3
f 75/132/8 92/131/8 96/158/8 82/172/8
f 84/163/3 97/156/3 221/157/3 203/164/3
f 52/173/14 89/152/14 95/155/14 79/174/14
f 60/175/11 90/146/11 94/142/11 80/176/11
f 80/176/11 94/142/11 93/145/11 77/177/11
f 76/178/8 74/168/8 92/131/8 93/130/8
f 53/179/3 72/180/3 91/98/3 88/101/3
f 35/181/8 58/182/8 90/129/8 86/128/8
f 153/183/3 53/179/3 88/101/3 211/100/3
f 72/180/3 37/184/3 87/99/3 91/98/3
f 52/185/8 148/186/8 210/95/8 89/94/8
f 37/187/11 35/188/11 86/79/11 87/78/11
f 98/189/8 99/190/8 224/191/8 225/192/8
f 100/193/15 229/194/15 224/191/15 99/195/15
f 228/196/16 101/197/16 98/198/16 225/192/16
f 101/199/17 100/200/17 99/201/17 98/202/17
f 82/203/18 96/204/18 100/200/18 101/199/18
f 201/106/19 82/205/19 101/197/19 228/196/19
f 96/206/20 220/207/20 229/194/20 100/193/20
f 159/208/1 113/4/1 112/3/1 158/209/1
f 106/210/2 124/211/2 131/212/2 110/213/2
f 167/214/3 158/209/3 112/3/3 121/10/3
f 102/215/4 128/216/4 129/217/4 111/218/4
f 108/219/5 125/220/5 124/211/5 106/210/5
f 109/221/6 123/222/6 126/223/6 104/224/6
f 110/213/7 131/212/7 130/225/7 103/226/7
f 143/227/8 144/228/8 128/216/8 102/215/8
f 105/229/1 127/230/1 125/220/1 108/219/1
f 111/218/9 129/217/9 122/231/9 107/232/9
f 104/233/3 126/234/3 127/230/3 105/229/3
f 107/232/10 122/231/10 123/222/10 109/221/10
f 131/235/14 124/236/14 125/237/14 127/238/14 126/239/14 123/240/14 122/241/14 129/242/14 128/243/14 144/244/14 130/245/14
f 160/246/5 114/43/5 113/4/5 159/208/5
f 161/247/2 115/45/2 114/43/2 160/246/2
f 162/248/7 116/47/7 115/45/7 161/247/7
f 168/249/8 163/250/8 117/50/8 142/49/8
f 163/250/4 164/251/4 118/52/4 117/50/4
f 164/251/9 165/252/9 119/54/9 118/52/9
f 165/252/10 166/253/10 120/56/10 119/54/10
f 166/253/6 167/254/6 121/58/6 120/56/6
f 109/221/6 104/224/6 141/255/6 140/256/6
f 107/232/10 109/221/10 140/256/10 139/257/10
f 111/218/9 107/232/9 139/257/9 138/258/9
f 102/215/4 111/218/4 138/258/4 137/259/4
f 143/227/8 102/215/8 137/259/8 145/260/8
f 103/226/7 136/261/7 135/262/7 110/213/7
f 110/213/2 135/262/2 134/263/2 106/210/2
f 106/210/5 134/263/5 133/264/5 108/219/5
f 104/233/3 105/229/3 132/265/3 141/266/3
f 108/219/1 133/264/1 132/265/1 105/229/1
f 103/226/8 143/227/8 145/260/8 136/261/8
f 172/267/12 169/268/12 147/74/12 150/73/12
f 103/226/8 130/225/8 144/228/8 143/227/8
f 169/268/8 170/269/8 148/76/8 147/74/8
f 209/270/14 156/271/14 155/272/14 208/273/14
f 152/274/14 149/275/14 146/276/14 151/277/14
f 145/278/14 152/274/14 151/277/14 136/279/14
f 175/280/13 190/281/13 152/274/13 145/278/13
f 162/282/12 172/267/12 150/73/12 116/91/12
f 191/283/13 178/284/13 155/272/13 156/271/13
f 213/285/8 173/286/8 154/96/8 210/95/8
f 215/287/3 191/283/3 156/271/3 209/288/3
f 211/100/3 157/103/3 174/289/3 212/290/3
f 205/291/13 202/107/13 201/106/13 204/292/13
f 157/103/13 154/96/13 173/286/13 174/289/13
f 183/293/12 177/294/12 172/267/12 162/282/12
f 142/110/13 153/113/13 171/295/13 168/296/13
f 189/297/8 176/298/8 170/269/8 169/268/8
f 177/294/12 189/297/12 169/268/12 172/267/12
f 187/299/6 188/300/6 167/254/6 166/253/6
f 186/301/10 187/299/10 166/253/10 165/252/10
f 185/302/9 186/301/9 165/252/9 164/251/9
f 184/303/4 185/302/4 164/251/4 163/250/4
f 175/304/8 184/303/8 163/250/8 168/249/8
f 183/305/7 162/248/7 161/247/7 182/306/7
f 182/306/2 161/247/2 160/246/2 181/307/2
f 181/307/5 160/246/5 159/208/5 180/308/5
f 188/309/3 179/310/3 158/209/3 167/214/3
f 180/308/1 159/208/1 158/209/1 179/310/1
f 133/264/1 180/308/1 179/310/1 132/265/1
f 141/266/3 132/265/3 179/310/3 188/309/3
f 134/263/5 181/307/5 180/308/5 133/264/5
f 135/262/2 182/306/2 181/307/2 134/263/2
f 136/261/7 183/305/7 182/306/7 135/262/7
f 145/260/8 137/259/8 184/303/8 175/304/8
f 137/259/4 138/258/4 185/302/4 184/303/4
f 138/258/9 139/257/9 186/301/9 185/302/9
f 139/257/10 140/256/10 187/299/10 186/301/10
f 140/256/6 141/255/6 188/300/6 187/299/6
f 151/277/12 146/276/12 189/297/12 177/294/12
f 146/276/8 149/275/8 176/298/8 189/297/8
f 136/279/12 151/277/12 177/294/12 183/293/12
f 208/311/8 155/272/8 178/284/8 214/312/8
f 212/290/3 174/289/3 191/283/3 215/287/3
f 174/289/13 173/286/13 178/284/13 191/283/13
f 168/296/13 171/295/13 190/281/13 175/280/13
f 217/313/8 195/314/8 193/315/8 216/316/8
f 196/317/13 193/318/13 195/319/13 198/320/13
f 199/321/12 194/322/12 192/323/12 197/324/12
f 218/325/14 217/326/14 194/327/14 199/328/14
f 214/329/14 218/325/14 199/328/14 176/330/14
f 176/331/12 199/321/12 197/324/12 170/332/12
f 173/333/13 196/317/13 198/320/13 178/334/13
f 213/335/11 219/336/11 196/337/11 173/338/11
f 221/157/11 220/207/11 201/106/11 202/107/11
f 223/339/3 221/157/3 202/107/3 205/291/3
f 222/340/8 220/161/8 200/160/8 207/341/8
f 207/342/12 200/165/12 203/164/12 206/343/12
f 192/344/12 207/342/12 206/343/12 197/345/12
f 216/316/8 222/340/8 207/341/8 192/346/8
f 219/347/3 223/339/3 205/291/3 196/348/3
f 196/348/13 205/291/13 204/292/13 193/349/13
f 197/345/3 206/343/3 223/339/3 219/347/3
f 193/315/8 204/350/8 222/340/8 216/316/8
f 229/194/11 224/191/11 225/192/11 228/196/11
f 206/343/3 203/164/3 221/157/3 223/339/3
f 203/164/11 200/165/11 220/207/11 221/157/11
f 170/351/11 197/352/11 219/336/11 213/335/11
f 178/353/14 198/354/14 218/325/14 214/329/14
f 198/354/14 195/355/14 217/326/14 218/325/14
f 194/356/8 217/313/8 216/316/8 192/346/8
f 171/357/3 212/290/3 215/287/3 190/358/3
f 149/359/8 208/311/8 214/312/8 176/360/8
f 153/183/3 211/100/3 212/290/3 171/357/3
f 190/358/3 215/287/3 209/288/3 152/361/3
f 170/362/8 213/285/8 210/95/8 148/186/8
f 152/363/14 209/270/14 208/273/14 149/364/14
f 226/365/8 225/192/8 224/191/8 227/366/8
f 230/367/15 227/368/15 224/191/15 229/194/15
f 228/196/16 225/192/16 226/369/16 231/370/16
f 231/371/21 226/372/21 227/373/21 230/374/21
f 204/375/22 231/371/22 230/374/22 222/376/22
f 201/106/19 228/196/19 231/370/19 204/377/19
f 222/378/20 230/367/20 229/194/20 220/207/20
f 220/207/11 229/194/11 228/196/11 201/106/11
